<?xml version="1.0" standalone="no"?>
<!DOCTYPE svg PUBLIC "-//W3C//DTD SVG 1.1//EN" "http://www.w3.org/Graphics/SVG/1.1/DTD/svg11.dtd" >
<svg xmlns="http://www.w3.org/2000/svg">
<metadata>Generated by IcoMoon</metadata>
<defs>
<font id="neshast" horiz-adv-x="1024">
<font-face units-per-em="1024" ascent="960" descent="-64" />
<missing-glyph horiz-adv-x="1024" />
<glyph unicode="&#x20;" horiz-adv-x="512" d="" />
<glyph unicode="&#xe900;" glyph-name="more-vertical" d="M426.667 149.333c0-46.933 38.4-85.333 85.333-85.333s85.333 38.4 85.333 85.333-38.4 85.333-85.333 85.333-85.333-38.4-85.333-85.333zM426.667 746.667c0-46.933 38.4-85.333 85.333-85.333s85.333 38.4 85.333 85.333-38.4 85.333-85.333 85.333-85.333-38.4-85.333-85.333zM426.667 448c0-46.933 38.4-85.333 85.333-85.333s85.333 38.4 85.333 85.333-38.4 85.333-85.333 85.333-85.333-38.4-85.333-85.333z" />
<glyph unicode="&#xe901;" glyph-name="more-vertical-outline" d="M512 268.8c-64 0-119.467-51.2-119.467-119.467s51.2-119.467 119.467-119.467 119.467 51.2 119.467 119.467-55.467 119.467-119.467 119.467zM512 98.133c-29.867 0-51.2 25.6-51.2 51.2s25.6 51.2 51.2 51.2 51.2-25.6 51.2-51.2-21.333-51.2-51.2-51.2zM512 627.2c64 0 119.467 51.2 119.467 119.467s-55.467 119.467-119.467 119.467-119.467-55.467-119.467-119.467 55.467-119.467 119.467-119.467zM512 797.867c29.867 0 51.2-25.6 51.2-51.2s-21.333-51.2-51.2-51.2-51.2 21.333-51.2 51.2 21.333 51.2 51.2 51.2zM512 567.467c-64 0-119.467-51.2-119.467-119.467s51.2-119.467 119.467-119.467 119.467 51.2 119.467 119.467-55.467 119.467-119.467 119.467zM512 396.8c-29.867 0-51.2 25.6-51.2 51.2s25.6 51.2 51.2 51.2 51.2-25.6 51.2-51.2-21.333-51.2-51.2-51.2z" />
<glyph unicode="&#xe902;" glyph-name="dcube" d="M836.267 597.333c25.6 12.8 42.667 42.667 42.667 72.533s-17.067 59.733-42.667 72.533l-277.333 149.333c-34.133 21.333-76.8 21.333-106.667 0l-273.067-153.6c-25.6-12.8-42.667-42.667-42.667-72.533s17.067-59.733 42.667-72.533l277.333-149.333c17.067-8.533 34.133-12.8 51.2-12.8s38.4 4.267 55.467 12.8l273.067 153.6zM486.4 503.467l-281.6 149.333c-4.267 4.267-4.267 12.8-4.267 17.067s0 8.533 8.533 12.8l277.333 149.333c8.533 4.267 12.8 8.533 21.333 8.533s12.8-4.267 21.333-8.533c0 0 0 0 4.267 0l277.333-149.333c8.533-4.267 8.533-12.8 8.533-12.8s0-8.533-8.533-12.8l-277.333-149.333c-17.067-8.533-34.133-12.8-46.933-4.267zM422.4 426.667l-260.267 128c0 0 0 0 0 0-25.6 12.8-55.467 8.533-81.067-8.533-21.333-17.067-29.867-42.667-29.867-64v-243.2c0-51.2 25.6-93.867 68.267-115.2l256-128c12.8-8.533 25.6-8.533 38.4-8.533s25.6 4.267 38.4 12.8 42.667 42.667 42.667 68.267v243.2c0 51.2-29.867 93.867-72.533 115.2zM430.933 72.533c0-8.533-4.267-12.8-8.533-12.8s-8.533-4.267-12.8 0l-256 128c-21.333 12.8-34.133 29.867-34.133 55.467v247.467c0 0 0 4.267 4.267 8.533 4.267 0 4.267 4.267 8.533 4.267 0 0 4.267 0 4.267 0l260.267-128c21.333-8.533 34.133-29.867 34.133-55.467v-247.467zM968.533 490.667c-4.267 25.6-17.067 51.2-42.667 64-21.333 12.8-51.2 17.067-72.533 4.267 0 0 0 0 0 0l-256-128c-42.667-21.333-68.267-64-68.267-115.2v-243.2c0-29.867 17.067-55.467 42.667-68.267 12.8-8.533 25.6-12.8 38.4-12.8s25.6 4.267 34.133 8.533l260.267 128c42.667 21.333 68.267 64 68.267 115.2l-4.267 247.467zM908.8 243.2c0-25.6-12.8-46.933-34.133-55.467l-260.267-128c-4.267-4.267-8.533 0-12.8 0-4.267 4.267-8.533 8.533-8.533 12.8v243.2c0 25.6 12.8 46.933 34.133 55.467l256 128c4.267 0 12.8 0 17.067-4.267 4.267 0 8.533-8.533 12.8-12.8v-238.933z" />
<glyph unicode="&#xe903;" glyph-name="d-cube-scan" d="M725.333 908.8h-426.667c-145.067 0-247.467-102.4-247.467-247.467v-85.333c0-17.067 12.8-34.133 34.133-34.133s34.133 17.067 34.133 34.133v85.333c0 110.933 72.533 179.2 179.2 179.2h426.667c110.933 0 179.2-72.533 179.2-179.2v-85.333c0-17.067 12.8-34.133 34.133-34.133s34.133 12.8 34.133 34.133v85.333c0 145.067-102.4 247.467-247.467 247.467zM938.667 354.133c-17.067 0-34.133-12.8-34.133-34.133v-85.333c0-110.933-72.533-179.2-179.2-179.2h-426.667c-110.933 0-179.2 72.533-179.2 179.2v85.333c0 17.067-12.8 34.133-34.133 34.133s-34.133-17.067-34.133-34.133v-85.333c0-145.067 98.133-247.467 247.467-247.467h426.667c145.067 0 247.467 98.133 247.467 247.467v85.333c0 17.067-17.067 34.133-34.133 34.133zM443.733 174.933c21.333-12.8 42.667-17.067 68.267-17.067s51.2 4.267 68.267 17.067l136.533 76.8c38.4 21.333 72.533 76.8 72.533 123.733v145.067c0 46.933-29.867 98.133-72.533 123.733l-136.533 76.8c-38.4 21.333-102.4 21.333-140.8 0l-132.267-76.8c-38.4-25.6-72.533-76.8-72.533-123.733v-145.067c0-46.933 29.867-98.133 72.533-123.733l136.533-76.8zM686.933 311.467l-136.533-76.8c-4.267 0-4.267 0-8.533-4.267v183.467l183.467 102.4v-140.8c0-21.333-17.067-55.467-38.4-64zM477.867 661.333c0 4.267 0 4.267 0 0 8.533 4.267 21.333 8.533 34.133 8.533s29.867-4.267 38.4-8.533l136.533-76.8c4.267-4.267 8.533-8.533 12.8-12.8l-187.733-102.4-183.467 106.667c4.267 4.267 8.533 8.533 12.8 8.533l136.533 76.8zM298.667 516.267l179.2-106.667v-179.2c0 0-4.267 0-4.267 0l-132.267 81.067c-21.333 8.533-42.667 42.667-42.667 64v140.8z" />
<glyph unicode="&#xe904;" glyph-name="d-rotate" d="M789.333 375.467v145.067c0 46.933-29.867 98.133-72.533 123.733l-136.533 76.8c-38.4 21.333-102.4 21.333-140.8 0l-132.267-76.8c-38.4-25.6-72.533-76.8-72.533-123.733v-145.067c0-46.933 29.867-98.133 72.533-123.733l136.533-76.8c21.333-12.8 42.667-17.067 68.267-17.067s51.2 4.267 68.267 17.067l136.533 76.8c42.667 25.6 72.533 76.8 72.533 123.733zM477.867 661.333c0 4.267 0 4.267 0 0 8.533 4.267 21.333 8.533 34.133 8.533s29.867-4.267 38.4-8.533l136.533-76.8c4.267-4.267 8.533-8.533 12.8-12.8l-187.733-102.4-183.467 106.667c4.267 4.267 8.533 8.533 12.8 8.533l136.533 76.8zM341.333 311.467c-21.333 8.533-42.667 42.667-42.667 64v140.8l179.2-106.667v-179.2c0 0-4.267 0-4.267 0l-132.267 81.067zM686.933 311.467l-136.533-76.8c-4.267 0-4.267 0-8.533-4.267v183.467l183.467 102.4v-140.8c0-21.333-17.067-55.467-38.4-64zM938.667 354.133c-17.067 0-34.133-12.8-34.133-34.133 0-128-89.6-234.667-209.067-260.267l12.8 21.333c8.533 17.067 4.267 34.133-12.8 42.667s-34.133 4.267-42.667-12.8l-42.667-76.8c-4.267-8.533-4.267-21.333 0-29.867s17.067-17.067 25.6-17.067c183.467 0 332.8 145.067 332.8 332.8 4.267 17.067-12.8 34.133-29.867 34.133zM311.467 814.933c-8.533-17.067-4.267-34.133 12.8-42.667s34.133-4.267 42.667 12.8l42.667 76.8c4.267 8.533 4.267 21.333 0 29.867s-12.8 17.067-25.6 17.067c-183.467 0-332.8-149.333-332.8-332.8 0-17.067 12.8-34.133 34.133-34.133s34.133 17.067 34.133 34.133c0 128 89.6 234.667 209.067 260.267l-17.067-21.333z" />
<glyph unicode="&#xe905;" glyph-name="d-square" d="M640 908.8h-256c-230.4 0-332.8-102.4-332.8-332.8v-256c0-230.4 98.133-332.8 332.8-332.8h256c230.4 0 332.8 98.133 332.8 332.8v256c0 230.4-102.4 332.8-332.8 332.8zM904.533 320c0-196.267-68.267-264.533-264.533-264.533h-256c-196.267 0-264.533 68.267-264.533 264.533v256c0 196.267 68.267 264.533 264.533 264.533h256c196.267 0 264.533-68.267 264.533-264.533v-256zM721.067 644.267l-136.533 76.8c-38.4 21.333-102.4 21.333-140.8 0l-136.533-76.8c-38.4-25.6-72.533-76.8-72.533-123.733v-145.067c0-46.933 29.867-98.133 72.533-123.733l136.533-76.8c21.333-12.8 42.667-17.067 68.267-17.067s51.2 4.267 68.267 17.067l136.533 76.8c38.4 21.333 72.533 76.8 72.533 123.733v145.067c0 46.933-29.867 98.133-68.267 123.733zM477.867 661.333c0 4.267 0 4.267 0 0 8.533 4.267 21.333 8.533 34.133 8.533s29.867-4.267 38.4-8.533l136.533-76.8c4.267-4.267 8.533-8.533 12.8-12.8l-187.733-102.4-183.467 106.667c4.267 4.267 8.533 8.533 12.8 8.533l136.533 76.8zM341.333 311.467c-21.333 8.533-42.667 42.667-42.667 64v140.8l179.2-106.667v-179.2c0 0-4.267 0-4.267 0l-132.267 81.067zM686.933 311.467l-136.533-76.8c-4.267 0-4.267 0-8.533-4.267v183.467l183.467 102.4v-140.8c0-21.333-17.067-55.467-38.4-64z" />
<glyph unicode="&#xe906;" glyph-name="square" d="M827.733 908.8h-204.8c-93.867 0-140.8-46.933-140.8-145.067v-68.267h-72.533c-93.867 0-145.067-46.933-145.067-145.067v-68.267h-68.267c-93.867 0-145.067-51.2-145.067-149.333v-200.533c0-93.867 46.933-140.8 145.067-140.8h204.8c98.133 0 145.067 46.933 145.067 140.8v72.533h72.533c98.133 0 140.8 46.933 140.8 140.8v72.533h72.533c98.133 0 140.8 46.933 140.8 145.067v200.533c0 93.867-51.2 145.067-145.067 145.067zM477.867 132.267c0-59.733-17.067-76.8-81.067-76.8h-200.533c-59.733 0-81.067 21.333-81.067 76.8v200.533c0 64 17.067 85.333 81.067 85.333h68.267v-72.533c0-93.867 46.933-140.8 145.067-140.8h68.267v-72.533zM691.2 345.6c0-59.733-17.067-76.8-76.8-76.8h-204.8c-59.733 0-81.067 21.333-81.067 76.8v204.8c0 59.733 21.333 81.067 81.067 81.067h68.267v-68.267c0-98.133 46.933-145.067 140.8-145.067h72.533v-72.533zM904.533 558.933c0-59.733-17.067-81.067-76.8-81.067h-204.8c-59.733 0-76.8 17.067-76.8 81.067v204.8c0 59.733 21.333 81.067 76.8 81.067h204.8c59.733 0 76.8-21.333 76.8-81.067v-204.8z" />
<glyph unicode="&#xe907;" glyph-name="support" d="M768 908.8h-512c-89.6 0-162.133-72.533-162.133-162.133v-465.067c0-89.6 68.267-162.133 162.133-162.133h34.133c25.6 0 46.933-8.533 68.267-29.867l72.533-72.533c21.333-21.333 46.933-34.133 76.8-38.4 0 0 4.267 0 4.267 0 29.867 0 59.733 12.8 85.333 34.133l72.533 76.8c12.8 17.067 38.4 25.6 64 25.6h34.133c89.6 0 162.133 72.533 162.133 162.133v469.333c0 93.867-72.533 162.133-162.133 162.133zM861.867 285.867c0-51.2-42.667-93.867-93.867-93.867h-34.133c-46.933 0-89.6-17.067-110.933-46.933l-72.533-72.533c-12.8-12.8-25.6-17.067-38.4-17.067s-25.6 4.267-34.133 17.067l-72.533 72.533c-29.867 29.867-68.267 46.933-110.933 46.933h-38.4c-55.467 0-93.867 42.667-93.867 93.867v460.8c0 51.2 42.667 93.867 93.867 93.867h512c55.467 0 93.867-42.667 93.867-93.867v-460.8zM392.533 452.267c38.4 25.6 81.067 55.467 81.067 115.2 0 55.467-46.933 102.4-102.4 102.4s-106.667-42.667-106.667-98.133c0-17.067 12.8-34.133 34.133-34.133s34.133 12.8 34.133 34.133c0 21.333 21.333 38.4 42.667 38.4s38.4-21.333 38.4-38.4c0-25.6-21.333-38.4-55.467-64-34.133-21.333-68.267-46.933-85.333-93.867-4.267-17.067 0-34.133 8.533-46.933 12.8-12.8 29.867-21.333 46.933-21.333h115.2c17.067 0 34.133 12.8 34.133 34.133s-17.067 25.6-34.133 25.6h-106.667c12.8 17.067 34.133 34.133 55.467 46.933zM725.333 473.6h-8.533v145.067c0 21.333-12.8 42.667-34.133 55.467-21.333 8.533-46.933 4.267-68.267-12.8 0 0-4.267-4.267-4.267-8.533-25.6-46.933-59.733-102.4-93.867-153.6-8.533-17.067-8.533-38.4 0-55.467 4.267-12.8 21.333-29.867 55.467-29.867h85.333v-38.4c0-17.067 12.8-34.133 34.133-34.133s34.133 12.8 34.133 34.133v38.4c17.067 0 34.133 12.8 34.133 34.133s-17.067 25.6-34.133 25.6zM648.533 473.6h-76.8c25.6 42.667 51.2 85.333 76.8 123.733v-123.733z" />
<glyph unicode="&#xe908;" glyph-name="activity" d="M640 908.8h-256c-230.4 0-332.8-102.4-332.8-332.8v-256c0-230.4 98.133-332.8 332.8-332.8h256c230.4 0 332.8 98.133 332.8 332.8v256c0 230.4-102.4 332.8-332.8 332.8zM904.533 320c0-196.267-68.267-264.533-264.533-264.533h-256c-196.267 0-264.533 68.267-264.533 264.533v256c0 196.267 68.267 264.533 264.533 264.533h256c196.267 0 264.533-68.267 264.533-264.533v-256zM682.667 580.267l-98.133-128c0 0-4.267-4.267-4.267-4.267-4.267 0-8.533 0-8.533 0l-76.8 59.733c-12.8 12.8-34.133 17.067-55.467 12.8s-38.4-12.8-46.933-25.6l-106.667-132.267c-12.8-12.8-8.533-34.133 4.267-46.933 4.267-4.267 12.8-8.533 21.333-8.533s17.067 4.267 25.6 12.8l102.4 132.267c4.267 4.267 12.8 4.267 12.8 4.267l76.8-59.733c17.067-12.8 38.4-17.067 59.733-12.8s34.133 17.067 42.667 29.867l98.133 128c12.8 12.8 8.533 34.133-4.267 46.933-12.8 4.267-29.867 4.267-42.667-8.533z" />
<glyph unicode="&#xe909;" glyph-name="add" d="M768 482.133h-221.867v221.867c0 17.067-12.8 34.133-34.133 34.133s-34.133-17.067-34.133-34.133v-221.867h-221.867c-17.067 0-34.133-12.8-34.133-34.133s12.8-34.133 34.133-34.133h221.867v-221.867c0-17.067 12.8-34.133 34.133-34.133s34.133 12.8 34.133 34.133v221.867h221.867c17.067 0 34.133 12.8 34.133 34.133s-17.067 34.133-34.133 34.133z" />
<glyph unicode="&#xe90a;" glyph-name="add-circle" d="M512 908.8c-251.733 0-460.8-209.067-460.8-460.8s209.067-460.8 460.8-460.8 460.8 209.067 460.8 460.8-209.067 460.8-460.8 460.8zM512 55.467c-217.6 0-392.533 174.933-392.533 392.533s174.933 392.533 392.533 392.533 392.533-174.933 392.533-392.533-174.933-392.533-392.533-392.533zM682.667 482.133h-136.533v136.533c0 17.067-12.8 34.133-34.133 34.133s-34.133-17.067-34.133-34.133v-136.533h-136.533c-17.067 0-34.133-12.8-34.133-34.133s12.8-34.133 34.133-34.133h136.533v-136.533c0-17.067 12.8-34.133 34.133-34.133s34.133 12.8 34.133 34.133v136.533h136.533c17.067 0 34.133 12.8 34.133 34.133s-17.067 34.133-34.133 34.133z" />
<glyph unicode="&#xe90b;" glyph-name="additem" d="M341.333 311.467h-110.933c-81.067 0-110.933 34.133-110.933 110.933v307.2c0 81.067 34.133 110.933 110.933 110.933h196.267c81.067 0 115.2-34.133 115.2-110.933 0-17.067 12.8-34.133 34.133-34.133s34.133 12.8 34.133 34.133c0 115.2-59.733 174.933-179.2 174.933h-200.533c-115.2 0-174.933-59.733-174.933-174.933v-307.2c0-115.2 59.733-174.933 174.933-174.933h110.933c17.067 0 34.133 12.8 34.133 34.133s-17.067 29.867-34.133 29.867zM793.6 652.8h-196.267c-115.2 0-174.933-64-174.933-179.2v-302.933c0-115.2 59.733-179.2 174.933-179.2h196.267c115.2 0 179.2 64 179.2 179.2v302.933c0 115.2-64 179.2-179.2 179.2zM904.533 170.667c0-85.333-29.867-119.467-115.2-119.467h-192c-81.067 0-110.933 34.133-110.933 115.2v302.933c0 85.333 29.867 119.467 110.933 119.467h196.267c81.067 0 115.2-34.133 115.2-110.933v-307.2zM776.533 354.133h-42.667v42.667c0 17.067-12.8 34.133-34.133 34.133s-34.133-12.8-34.133-34.133v-42.667h-34.133c-17.067 0-34.133-12.8-34.133-34.133s12.8-34.133 34.133-34.133h34.133v-34.133c0-17.067 12.8-34.133 34.133-34.133s34.133 12.8 34.133 34.133v34.133h42.667c17.067 0 34.133 12.8 34.133 34.133s-17.067 34.133-34.133 34.133z" />
<glyph unicode="&#xe90c;" glyph-name="add-square" d="M682.667 482.133h-136.533v136.533c0 17.067-12.8 34.133-34.133 34.133s-34.133-17.067-34.133-34.133v-136.533h-136.533c-17.067 0-34.133-12.8-34.133-34.133s12.8-34.133 34.133-34.133h136.533v-136.533c0-17.067 12.8-34.133 34.133-34.133s34.133 12.8 34.133 34.133v136.533h136.533c17.067 0 34.133 12.8 34.133 34.133s-17.067 34.133-34.133 34.133zM640 908.8h-256c-230.4 0-332.8-102.4-332.8-332.8v-256c0-230.4 98.133-332.8 332.8-332.8h256c230.4 0 332.8 98.133 332.8 332.8v256c0 230.4-102.4 332.8-332.8 332.8zM904.533 320c0-196.267-68.267-264.533-264.533-264.533h-256c-196.267 0-264.533 68.267-264.533 264.533v256c0 196.267 68.267 264.533 264.533 264.533h256c196.267 0 264.533-68.267 264.533-264.533v-256z" />
<glyph unicode="&#xe90d;" glyph-name="airdrop" d="M512 375.467c8.533 0 21.333 0 29.867 4.267 46.933 12.8 81.067 46.933 89.6 89.6 12.8 42.667 0 89.6-34.133 119.467-29.867 29.867-76.8 42.667-119.467 34.133-46.933-8.533-81.067-42.667-89.6-89.6-12.8-42.667 0-89.6 34.133-119.467 21.333-25.6 55.467-38.4 89.6-38.4zM448 516.267c4.267 21.333 21.333 38.4 42.667 46.933 4.267 0 12.8 0 17.067 0 17.067 0 34.133-4.267 42.667-17.067 17.067-17.067 21.333-38.4 17.067-59.733 0 0 0 0 0 0-4.267-21.333-21.333-38.4-42.667-46.933-21.333-4.267-46.933 0-59.733 17.067-17.067 17.067-21.333 38.4-17.067 59.733zM512 908.8c-230.4 0-405.333-179.2-405.333-405.333 0-110.933 46.933-217.6 128-294.4 12.8-12.8 34.133-12.8 46.933 0s12.8 34.133 0 46.933c-72.533 59.733-110.933 149.333-110.933 243.2 0 192 149.333 341.333 341.333 341.333s341.333-149.333 341.333-341.333c0-93.867-38.4-183.467-110.933-251.733-12.8-12.8-12.8-34.133 0-46.933 4.267-8.533 12.8-8.533 21.333-8.533s17.067 4.267 21.333 8.533c81.067 76.8 128 183.467 128 294.4 4.267 234.667-170.667 413.867-401.067 413.867zM512 768c-145.067 0-264.533-123.733-264.533-264.533 0-68.267 25.6-132.267 72.533-183.467 12.8-12.8 34.133-12.8 46.933-4.267s12.8 34.133 4.267 46.933c-25.6 29.867-55.467 76.8-55.467 140.8-8.533 106.667 85.333 200.533 196.267 200.533s204.8-93.867 204.8-204.8c0-64-29.867-110.933-55.467-140.8-12.8-12.8-12.8-34.133 4.267-46.933 4.267-4.267 12.8-8.533 21.333-8.533s17.067 4.267 25.6 8.533c46.933 51.2 72.533 115.2 72.533 183.467-8.533 149.333-128 273.067-273.067 273.067zM614.4 268.8c-25.6 29.867-64 46.933-102.4 46.933s-72.533-17.067-93.867-46.933c0 0 0 0 0 0l-64-76.8c-29.867-38.4-38.4-85.333-17.067-128s64-72.533 115.2-72.533h123.733c51.2 0 93.867 29.867 115.2 72.533s12.8 93.867-17.067 128l-59.733 76.8zM631.467 89.6c-8.533-17.067-25.6-38.4-55.467-38.4h-123.733c-25.6 0-46.933 12.8-55.467 34.133s-4.267 42.667 8.533 64l59.733 76.8c12.8 12.8 29.867 21.333 46.933 21.333 21.333 0 38.4-8.533 51.2-21.333l59.733-76.8c21.333-25.6 12.8-51.2 8.533-59.733z" />
<glyph unicode="&#xe90e;" glyph-name="airplane" d="M861.867 537.6l-230.4 98.133v119.467c0 46.933-34.133 106.667-81.067 132.267-4.267 0-4.267 4.267-8.533 4.267-17.067 4.267-42.667 8.533-59.733 0-46.933-21.333-85.333-81.067-85.333-136.533v-123.733l-230.4-98.133c-38.4-12.8-68.267-59.733-68.267-102.4v-55.467c0-25.6 12.8-51.2 29.867-64 21.333-12.8 46.933-17.067 72.533-4.267l196.267 85.333v-110.933c0 0 0-4.267-4.267-8.533l-98.133-98.133c-17.067-17.067-25.6-51.2-17.067-76.8l17.067-59.733c8.533-21.333 25.6-34.133 46.933-42.667 8.533-4.267 17.067-4.267 25.6-4.267 12.8 0 25.6 4.267 34.133 8.533 0 0 4.267 0 4.267 4.267l98.133 85.333c4.267 4.267 12.8 4.267 17.067 0l98.133-85.333c0 0 4.267-4.267 4.267-4.267 17.067-8.533 38.4-12.8 59.733-4.267s38.4 25.6 46.933 46.933l17.067 55.467c8.533 25.6 0 59.733-17.067 76.8l-98.133 102.4c0 4.267-4.267 8.533-4.267 12.8v110.933l196.267-85.333c25.6-8.533 51.2-8.533 72.533 4.267 17.067 12.8 29.867 34.133 29.867 64v55.467c4.267 38.4-25.6 76.8-64 98.133zM861.867 379.733c0-4.267 0-8.533-4.267-8.533 0 0-4.267 0-12.8 0l-204.8 89.6c0 0-4.267 0-4.267 0-17.067 4.267-34.133 0-51.2-8.533-12.8-8.533-21.333-25.6-21.333-42.667v-123.733c0-17.067 4.267-34.133 12.8-42.667 0-4.267 4.267-4.267 4.267-8.533l98.133-98.133c0-4.267 4.267-8.533 0-12.8l-17.067-55.467c0-4.267-4.267-8.533-8.533-8.533 0 0-4.267 0-4.267 0l-98.133 85.333c-29.867 21.333-64 21.333-93.867 0l-89.6-81.067c0 0-4.267 0-4.267 0-4.267 0-8.533 0-8.533 0s0 0 0 0l-17.067 55.467c0 4.267 0 8.533 0 8.533l98.133 98.133c12.8 12.8 21.333 34.133 21.333 51.2v128c0 29.867-17.067 42.667-25.6 51.2-12.8 8.533-34.133 8.533-51.2 0l-209.067-89.6c-8.533-4.267-12.8-4.267-12.8 0 0 0-4.267 4.267-4.267 8.533v55.467c0 17.067 12.8 38.4 25.6 42.667l247.467 102.4c4.267 0 8.533 4.267 8.533 8.533 8.533 8.533 21.333 21.333 21.333 42.667v128c0 25.6 21.333 64 51.2 76.8 0 0 8.533 0 12.8 0 25.6-17.067 46.933-51.2 46.933-76.8v-128c0-25.6 17.067-42.667 38.4-46.933l234.667-98.133c17.067-8.533 29.867-29.867 29.867-42.667v-59.733z" />
<glyph unicode="&#xe90f;" glyph-name="airplane-square" d="M772.267 520.533l-162.133 68.267v81.067c0 42.667-29.867 85.333-64 106.667-17.067 8.533-42.667 8.533-59.733 0-34.133-21.333-59.733-64-59.733-106.667v-85.333l-170.667-68.267c-29.867-12.8-51.2-51.2-51.2-81.067v-38.4c0-21.333 8.533-42.667 25.6-55.467s38.4-12.8 64-4.267l128 55.467v-64l-72.533-68.267c-17.067-17.067-17.067-42.667-17.067-51.2 0-4.267 0-4.267 0-8.533l12.8-42.667c-4.267-4.267-4.267-8.533 0-8.533 21.333-29.867 59.733-42.667 89.6-25.6 4.267 0 4.267 4.267 4.267 4.267l72.533 59.733 72.533-59.733c0 0 4.267-4.267 4.267-4.267 8.533-4.267 17.067-8.533 29.867-8.533 8.533 0 17.067 0 25.6 4.267 17.067 8.533 29.867 21.333 34.133 38.4l12.8 42.667c4.267 12.8 4.267 25.6 0 38.4s-8.533 21.333-17.067 25.6l-64 64v68.267l132.267-55.467c21.333-8.533 42.667-4.267 59.733 4.267 17.067 12.8 25.6 29.867 25.6 55.467v38.4c-4.267 34.133-29.867 68.267-55.467 81.067zM516.267 183.467c0 0 0 0 0 0v0c0 0 0 0 0 0zM618.667 460.8c0 0-4.267 0-4.267 0-17.067 4.267-34.133 0-51.2-8.533-12.8-8.533-21.333-25.6-21.333-42.667v-81.067c0-17.067 8.533-34.133 17.067-42.667l68.267-68.267-12.8-38.4-59.733 51.2c-21.333 21.333-64 21.333-81.067 0l-68.267-55.467c0 0-4.267 0-8.533 4.267l-8.533 34.133 72.533 68.267c12.8 12.8 17.067 29.867 17.067 42.667v81.067c0 29.867-17.067 42.667-25.6 51.2-17.067 8.533-34.133 8.533-51.2 0l-136.533-59.733c0 0 0 0 0 0v38.4c0 4.267 8.533 21.333 12.8 21.333l179.2 68.267c17.067 8.533 29.867 29.867 29.867 51.2v93.867c0 17.067 12.8 42.667 29.867 46.933 17.067-8.533 29.867-29.867 29.867-46.933v-85.333c0-21.333 12.8-42.667 34.133-51.2l166.4-72.533c8.533-4.267 17.067-17.067 17.067-21.333v-38.4l-145.067 59.733zM640 908.8h-256c-230.4 0-332.8-102.4-332.8-332.8v-256c0-230.4 98.133-332.8 332.8-332.8h256c230.4 0 332.8 98.133 332.8 332.8v256c0 230.4-102.4 332.8-332.8 332.8zM904.533 320c0-196.267-68.267-264.533-264.533-264.533h-256c-196.267 0-264.533 68.267-264.533 264.533v256c0 196.267 68.267 264.533 264.533 264.533h256c196.267 0 264.533-68.267 264.533-264.533v-256z" />
<glyph unicode="&#xe910;" glyph-name="airpod" d="M938.667 699.733c-17.067 174.933-119.467 209.067-290.133 209.067h-264.533c-174.933 0-277.333-34.133-298.667-200.533-4.267-29.867-4.267-59.733-4.267-93.867v-324.267c0-34.133 4.267-64 8.533-93.867 17.067-174.933 119.467-209.067 294.4-209.067h264.533c174.933 0 268.8 34.133 290.133 204.8 4.267 29.867 4.267 59.733 4.267 93.867v324.267c0 34.133 0 64-4.267 89.6zM384 844.8h264.533c183.467 0 217.6-42.667 230.4-153.6 4.267-21.333 4.267-46.933 4.267-76.8h-119.467c-4.267 21.333-17.067 38.4-29.867 51.2-21.333 25.6-51.2 38.4-85.333 38.4h-264.533c-55.467 0-102.4-38.4-115.2-89.6h-123.733c0 29.867 0 59.733 4.267 85.333 12.8 102.4 46.933 145.067 234.667 145.067zM699.733 580.267c0-29.867-21.333-59.733-59.733-59.733h-256c-17.067 0-29.867 4.267-38.4 12.8-8.533 12.8-12.8 25.6-12.8 42.667 0 29.867 21.333 59.733 55.467 59.733h260.267c12.8 0 25.6-4.267 34.133-12.8 0 0 0-4.267 4.267-4.267 8.533-4.267 12.8-25.6 12.8-38.4zM874.667 200.533c-12.8-110.933-51.2-149.333-230.4-149.333h-260.267c-183.467 0-217.6 42.667-230.4 153.6-4.267 29.867-8.533 55.467-8.533 85.333v260.267h123.733c4.267-17.067 12.8-34.133 25.6-51.2 0 0 0-4.267 4.267-4.267 21.333-21.333 51.2-34.133 85.333-34.133h256c55.467 0 102.4 38.4 115.2 89.6h119.467v-260.267c4.267-34.133 4.267-64 0-89.6z" />
<glyph unicode="&#xe911;" glyph-name="airpods" d="M328.533 908.8h-81.067c-106.667 0-192-85.333-192-192s85.333-196.267 192-196.267h8.533v-285.867c0-46.933 34.133-89.6 76.8-106.667v-106.667c0-17.067 12.8-34.133 34.133-34.133s34.133 12.8 34.133 34.133v98.133c46.933 12.8 85.333 59.733 85.333 110.933v524.8c-8.533 85.333-72.533 153.6-157.867 153.6zM418.133 230.4c0-25.6-25.6-51.2-46.933-51.2s-46.933 25.6-46.933 51.2v320c0 17.067-12.8 34.133-34.133 34.133h-42.667c-72.533 0-128 59.733-128 132.267s59.733 128 128 128h81.067c46.933 0 85.333-38.4 85.333-85.333v-529.067zM247.467 721.067c17.067 0 34.133 12.8 34.133 34.133s-17.067 29.867-34.133 29.867c-38.4 0-68.267-29.867-68.267-68.267s29.867-72.533 68.267-72.533c17.067 0 34.133 12.8 34.133 34.133s-17.067 25.6-34.133 25.6c-4.267 0-8.533 4.267-8.533 8.533s4.267 8.533 8.533 8.533zM776.533 908.8h-81.067c-85.333 0-149.333-68.267-149.333-149.333v-524.8c0-51.2 38.4-93.867 85.333-110.933v-102.4c0-17.067 12.8-34.133 34.133-34.133s34.133 12.8 34.133 34.133v102.4c42.667 17.067 76.8 59.733 76.8 106.667v285.867h8.533c106.667 0 192 85.333 192 196.267-4.267 106.667-93.867 196.267-200.533 196.267zM776.533 580.267h-38.4c-17.067 0-34.133-12.8-34.133-34.133v-320c0-25.6-25.6-51.2-46.933-51.2-25.6 0-51.2 25.6-51.2 51.2v529.067c0 46.933 38.4 85.333 85.333 85.333h81.067c72.533 0 128-59.733 128-128 4.267-72.533-51.2-132.267-123.733-132.267zM776.533 785.067c-17.067 0-34.133-12.8-34.133-34.133s12.8-34.133 34.133-34.133c4.267 0 4.267-4.267 4.267-4.267 0-4.267-4.267-8.533-4.267-8.533-17.067 0-34.133-12.8-34.133-34.133s12.8-34.133 34.133-34.133c38.4 0 68.267 29.867 68.267 72.533s-29.867 76.8-68.267 76.8z" />
<glyph unicode="&#xe912;" glyph-name="alarm" d="M938.667 55.467h-8.533v264.533c0 230.4-187.733 418.133-418.133 418.133s-418.133-187.733-418.133-418.133v-264.533h-8.533c-17.067 0-34.133-12.8-34.133-34.133s12.8-34.133 34.133-34.133h853.333c17.067 0 34.133 12.8 34.133 34.133s-17.067 34.133-34.133 34.133zM162.133 55.467v264.533c0 192 157.867 349.867 349.867 349.867s349.867-157.867 349.867-349.867v-264.533h-699.733zM512 797.867c17.067 0 34.133 12.8 34.133 34.133v42.667c0 17.067-12.8 34.133-34.133 34.133s-34.133-17.067-34.133-34.133v-42.667c0-17.067 17.067-34.133 34.133-34.133zM192 725.333c4.267-8.533 12.8-12.8 21.333-12.8s17.067 4.267 21.333 8.533c12.8 12.8 12.8 34.133 0 46.933l-42.667 42.667c-12.8 12.8-34.133 12.8-46.933 0s-12.8-34.133 0-46.933l46.933-38.4zM810.667 712.533c8.533 0 17.067 4.267 21.333 8.533l42.667 42.667c12.8 12.8 12.8 34.133 0 46.933s-34.133 12.8-46.933 0l-42.667-42.667c-12.8-12.8-12.8-34.133 0-46.933 8.533-4.267 17.067-8.533 25.6-8.533z" />
<glyph unicode="&#xe913;" glyph-name="align-bottom" d="M938.667 780.8h-853.333c-17.067 0-34.133-17.067-34.133-34.133s17.067-34.133 34.133-34.133h106.667v-260.267c0-81.067 42.667-123.733 128-123.733h42.667c85.333 0 128 38.4 128 123.733v260.267h72.533v-477.867c0-81.067 42.667-119.467 123.733-119.467h42.667c85.333 0 128 38.4 128 119.467v477.867h85.333c17.067 0 34.133 12.8 34.133 34.133s-21.333 34.133-38.4 34.133zM426.667 452.267c0-42.667-8.533-59.733-64-59.733h-42.667c-51.2 0-64 12.8-64 59.733v260.267h170.667v-260.267zM789.333 238.933c0-42.667-8.533-55.467-64-55.467h-42.667c-51.2 0-59.733 12.8-59.733 55.467v473.6h166.4v-473.6z" />
<glyph unicode="&#xe914;" glyph-name="align-horizontally" d="M938.667 482.133h-115.2v110.933c0 81.067-42.667 123.733-123.733 123.733h-42.667c-85.333 0-128-38.4-128-123.733v-110.933h-59.733c0 0 0 0 0 0v196.267c0 81.067-42.667 123.733-128 123.733h-42.667c-85.333 0-128-38.4-128-123.733v-196.267h-85.333c-17.067 0-34.133-12.8-34.133-34.133s12.8-34.133 34.133-34.133h85.333v-200.533c0-81.067 42.667-119.467 128-119.467h42.667c85.333 0 128 38.4 128 119.467v200.533c0 0 0 0 0 0h64v-115.2c0-81.067 42.667-119.467 128-119.467h42.667c85.333 0 123.733 38.4 123.733 119.467v115.2h110.933c17.067 0 34.133 12.8 34.133 34.133s-17.067 34.133-34.133 34.133zM405.333 217.6c0-42.667-8.533-55.467-64-55.467h-42.667c-51.2 0-64 12.8-64 55.467v460.8c0 42.667 8.533 59.733 64 59.733h42.667c51.2 0 64-12.8 64-59.733v-460.8zM759.467 302.933c0-42.667-8.533-55.467-59.733-55.467h-42.667c-46.933 0-64 12.8-64 55.467v290.133c0 42.667 8.533 59.733 64 59.733h42.667c51.2 0 59.733-12.8 59.733-59.733v-290.133z" />
<glyph unicode="&#xe915;" glyph-name="align-left" d="M721.067 405.333h-473.6v72.533h260.267c81.067 0 123.733 42.667 123.733 128v42.667c0 85.333-38.4 123.733-123.733 123.733h-260.267v102.4c0 17.067-12.8 34.133-34.133 34.133s-34.133-17.067-34.133-34.133v-853.333c0-17.067 12.8-34.133 34.133-34.133s34.133 12.8 34.133 34.133v85.333h477.867c81.067 0 119.467 42.667 119.467 128v42.667c0 85.333-42.667 128-123.733 128zM507.733 704c42.667 0 59.733-8.533 59.733-59.733v-42.667c0-51.2-12.8-64-59.733-64h-260.267v166.4h260.267zM776.533 234.667c0-51.2-12.8-64-55.467-64h-473.6v166.4h477.867c42.667 0 55.467-8.533 55.467-64v-38.4z" />
<glyph unicode="&#xe916;" glyph-name="align-right" d="M810.667 908.8c-17.067 0-34.133-12.8-34.133-34.133v-106.667h-260.267c-81.067 0-123.733-42.667-123.733-123.733v-42.667c0-85.333 38.4-128 123.733-128h260.267v-68.267h-473.6c-81.067 0-123.733-42.667-123.733-128v-42.667c0-85.333 38.4-128 123.733-128h473.6v-85.333c0-17.067 12.8-34.133 34.133-34.133s34.133 12.8 34.133 34.133v853.333c0 17.067-17.067 34.133-34.133 34.133zM516.267 537.6c-42.667 0-59.733 8.533-59.733 64v42.667c0 51.2 12.8 59.733 59.733 59.733h260.267v-166.4h-260.267zM302.933 170.667c-42.667 0-59.733 8.533-59.733 64v42.667c0 51.2 12.8 64 59.733 64h473.6v-166.4h-473.6z" />
<glyph unicode="&#xe917;" glyph-name="align-vertically" d="M742.4 405.333h-200.533c0 0 0 0 0 0v64h115.2c81.067 0 119.467 42.667 119.467 123.733v42.667c0 85.333-38.4 128-119.467 128h-115.2v110.933c0 17.067-12.8 34.133-34.133 34.133s-29.867-17.067-29.867-34.133v-110.933h-110.933c-81.067 0-123.733-42.667-123.733-128v-42.667c0-85.333 38.4-123.733 123.733-123.733h110.933v-64c0 0 0 0 0 0h-196.267c-81.067 0-123.733-42.667-123.733-128v-42.667c0-85.333 38.4-128 123.733-128h196.267v-85.333c0-17.067 12.8-34.133 34.133-34.133s34.133 12.8 34.133 34.133v85.333h200.533c81.067 0 119.467 42.667 119.467 128v42.667c-4.267 85.333-42.667 128-123.733 128zM307.2 593.067v42.667c0 51.2 12.8 64 59.733 64h290.133c42.667 0 55.467-8.533 55.467-64v-42.667c0-46.933-12.8-59.733-55.467-59.733h-290.133c-42.667 0-59.733 4.267-59.733 59.733zM802.133 234.667c0-51.2-12.8-64-55.467-64h-465.067c-42.667 0-59.733 8.533-59.733 64v42.667c0 51.2 12.8 64 59.733 64h460.8c42.667 0 55.467-8.533 55.467-64v-42.667z" />
<glyph unicode="&#xe918;" glyph-name="aquarius" d="M844.8 576c0 183.467-145.067 332.8-332.8 332.8s-332.8-149.333-332.8-332.8c0-17.067 12.8-34.133 34.133-34.133s34.133 17.067 34.133 34.133c0 149.333 115.2 264.533 264.533 264.533s264.533-115.2 264.533-264.533-115.2-264.533-264.533-264.533c-17.067 0-34.133-12.8-34.133-34.133v-93.867h-93.867c-17.067 0-34.133-12.8-34.133-34.133s12.8-34.133 34.133-34.133h93.867v-93.867c0-17.067 12.8-34.133 34.133-34.133s34.133 12.8 34.133 34.133v93.867h93.867c17.067 0 34.133 12.8 34.133 34.133s-12.8 34.133-34.133 34.133h-93.867v64c166.4 17.067 298.667 153.6 298.667 328.533z" />
<glyph unicode="&#xe919;" glyph-name="archive" d="M640 908.8h-256c-230.4 0-332.8-102.4-332.8-332.8v-256c0-230.4 98.133-332.8 332.8-332.8h256c230.4 0 332.8 98.133 332.8 332.8v256c0 230.4-102.4 332.8-332.8 332.8zM904.533 320c0-196.267-68.267-264.533-264.533-264.533h-256c-196.267 0-264.533 68.267-264.533 264.533v256c0 196.267 68.267 264.533 264.533 264.533h256c196.267 0 264.533-68.267 264.533-264.533v-256zM810.667 320h-8.533v307.2c0 64-55.467 119.467-119.467 119.467h-341.333c-64 0-119.467-55.467-119.467-119.467v-307.2h-8.533c-17.067 0-34.133-12.8-34.133-34.133s12.8-34.133 34.133-34.133h42.667c4.267 0 8.533 0 17.067 4.267h106.667c12.8-59.733 64-106.667 132.267-106.667s119.467 46.933 136.533 106.667h106.667c4.267-4.267 8.533-4.267 17.067-4.267h42.667c17.067 0 34.133 12.8 34.133 34.133s-21.333 34.133-38.4 34.133zM733.867 443.733c-17.067 8.533-34.133 12.8-51.2 12.8h-341.333c-21.333 0-38.4-4.267-51.2-12.8v46.933c0 29.867 25.6 51.2 51.2 51.2h341.333c29.867 0 51.2-25.6 51.2-51.2v-46.933zM341.333 682.667h341.333c29.867 0 51.2-25.6 51.2-51.2v-34.133c-17.067 8.533-34.133 12.8-51.2 12.8h-341.333c-21.333 0-38.4-4.267-51.2-12.8v29.867c0 29.867 21.333 55.467 51.2 55.467zM618.667 320c-17.067 0-34.133-12.8-34.133-34.133 0-42.667-34.133-76.8-76.8-76.8s-76.8 34.133-76.8 76.8c0 17.067-12.8 34.133-34.133 34.133h-106.667v17.067c0 29.867 25.6 51.2 51.2 51.2h341.333c29.867 0 51.2-25.6 51.2-51.2v-17.067h-115.2z" />
<glyph unicode="&#xe91a;" glyph-name="archive-1" d="M810.667 908.8h-597.333c-102.4 0-162.133-59.733-162.133-162.133v-85.333c0-85.333 38.4-136.533 106.667-153.6v-358.4c0-81.067 21.333-162.133 162.133-162.133h384c140.8 0 162.133 76.8 162.133 162.133v358.4c68.267 17.067 106.667 68.267 106.667 153.6v85.333c0 102.4-59.733 162.133-162.133 162.133zM704 55.467h-384c-85.333 0-93.867 21.333-93.867 93.867v349.867h576v-349.867c0-72.533-12.8-93.867-98.133-93.867zM904.533 661.333c0-68.267-29.867-93.867-93.867-93.867h-597.333c-68.267 0-93.867 25.6-93.867 93.867v85.333c0 68.267 29.867 93.867 93.867 93.867h597.333c68.267 0 93.867-29.867 93.867-93.867v-85.333zM588.8 396.8h-153.6c-17.067 0-34.133-12.8-34.133-34.133s12.8-34.133 34.133-34.133h153.6c17.067 0 34.133 12.8 34.133 34.133s-17.067 34.133-34.133 34.133z" />
<glyph unicode="&#xe91b;" glyph-name="archive-add" d="M618.667 541.867h-76.8v68.267c0 17.067-12.8 34.133-34.133 34.133s-34.133-12.8-34.133-34.133v-72.533h-68.267c-17.067 0-34.133-12.8-34.133-34.133s12.8-34.133 34.133-34.133h76.8v-76.8c0-17.067 12.8-34.133 34.133-34.133s34.133 12.8 34.133 34.133v76.8h76.8c17.067 0 34.133 12.8 34.133 34.133s-25.6 38.4-42.667 38.4zM917.333 712.533c-4.267 110.933-93.867 196.267-200.533 196.267h-413.867c-110.933 0-196.267-85.333-196.267-196.267v-605.867c0-46.933 17.067-89.6 51.2-106.667 12.8-8.533 29.867-12.8 51.2-12.8s46.933 8.533 68.267 21.333l209.067 115.2c12.8 8.533 38.4 8.533 51.2 0l209.067-115.2c42.667-25.6 85.333-25.6 119.467-8.533 34.133 21.333 51.2 59.733 51.2 106.667v605.867zM853.333 106.667c0-25.6-8.533-42.667-21.333-51.2s-34.133-4.267-55.467 8.533l-209.067 115.2c-29.867 17.067-81.067 17.067-110.933 0l-209.067-115.2c-21.333-12.8-42.667-17.067-55.467-8.533s-21.333 25.6-21.333 51.2v601.6c0 76.8 59.733 132.267 132.267 132.267h409.6c72.533 0 136.533-59.733 136.533-132.267v-601.6z" />
<glyph unicode="&#xe91c;" glyph-name="archive-book" d="M682.667 908.8h-341.333c-157.867 0-247.467-89.6-247.467-247.467v-426.667c0-157.867 89.6-247.467 247.467-247.467h341.333c157.867 0 247.467 89.6 247.467 247.467v426.667c0 157.867-89.6 247.467-247.467 247.467zM631.467 840.533v-281.6l-76.8 72.533c-21.333 21.333-55.467 21.333-72.533 0l-89.6-72.533v281.6h238.933zM861.867 234.667c0-123.733-59.733-179.2-179.2-179.2h-341.333c-123.733 0-179.2 59.733-179.2 179.2v426.667c0 119.467 55.467 174.933 170.667 179.2v-302.933c0-17.067 8.533-34.133 25.6-42.667 17.067-12.8 42.667-12.8 59.733 0 4.267 0 4.267 4.267 8.533 4.267l89.6 85.333 89.6-81.067c8.533-8.533 21.333-12.8 34.133-12.8 8.533 0 12.8 0 21.333 4.267 21.333 8.533 34.133 29.867 34.133 51.2v294.4c115.2-4.267 170.667-64 170.667-179.2v-426.667zM563.2 328.533h179.2c17.067 0 34.133 12.8 34.133 34.133s-12.8 34.133-34.133 34.133h-179.2c-17.067 0-34.133-12.8-34.133-34.133s17.067-34.133 34.133-34.133zM746.667 226.133h-362.667c-17.067 0-34.133-12.8-34.133-34.133s12.8-34.133 34.133-34.133h362.667c17.067 0 34.133 12.8 34.133 34.133s-17.067 34.133-34.133 34.133z" />
<glyph unicode="&#xe91d;" glyph-name="archive-minus" d="M618.667 541.867h-213.333c-17.067 0-34.133-12.8-34.133-34.133s12.8-34.133 34.133-34.133h213.333c17.067 0 34.133 12.8 34.133 34.133s-17.067 34.133-34.133 34.133zM917.333 712.533c-4.267 110.933-93.867 196.267-200.533 196.267h-413.867c-110.933 0-196.267-85.333-196.267-196.267v-605.867c0-46.933 17.067-89.6 51.2-106.667 12.8-8.533 29.867-12.8 51.2-12.8s46.933 8.533 68.267 21.333l209.067 115.2c12.8 8.533 38.4 8.533 51.2 0l209.067-115.2c42.667-25.6 85.333-25.6 119.467-8.533 34.133 21.333 51.2 59.733 51.2 106.667v605.867zM853.333 106.667c0-25.6-8.533-42.667-21.333-51.2s-34.133-4.267-55.467 8.533l-209.067 115.2c-29.867 17.067-81.067 17.067-110.933 0l-209.067-115.2c-21.333-12.8-42.667-17.067-55.467-8.533s-21.333 25.6-21.333 51.2v601.6c0 76.8 59.733 132.267 132.267 132.267h409.6c72.533 0 136.533-59.733 136.533-132.267v-601.6z" />
<glyph unicode="&#xe91e;" glyph-name="archive-slash" d="M960 896c-12.8 12.8-34.133 12.8-46.933 0l-55.467-55.467c-38.4 38.4-93.867 64-145.067 64h-405.333c-110.933 0-200.533-85.333-200.533-196.267v-601.6c0-4.267 0-8.533 4.267-12.8l-51.2-51.2c-12.8-12.8-12.8-34.133 0-46.933 4.267-4.267 12.8-8.533 21.333-8.533s17.067 4.267 21.333 8.533l853.333 853.333c17.067 17.067 17.067 34.133 4.267 46.933zM170.667 708.267c0 76.8 59.733 132.267 136.533 132.267h409.6c38.4 0 72.533-17.067 98.133-46.933l-644.267-640v554.667zM883.2 622.933c-17.067 0-34.133-12.8-34.133-34.133v-469.333c0-29.867-8.533-51.2-25.6-59.733s-38.4-4.267-64 8.533l-277.333 170.667c-17.067 8.533-34.133 4.267-42.667-8.533-8.533-17.067-4.267-34.133 8.533-42.667l277.333-170.667c25.6-12.8 51.2-21.333 76.8-21.333 17.067 0 38.4 4.267 51.2 12.8 34.133 21.333 55.467 64 55.467 115.2v469.333c8.533 12.8-8.533 29.867-25.6 29.867z" />
<glyph unicode="&#xe91f;" glyph-name="archive-tick" d="M917.333 712.533c-4.267 110.933-93.867 196.267-200.533 196.267h-413.867c-110.933 0-196.267-85.333-196.267-196.267v-605.867c0-46.933 17.067-89.6 51.2-106.667 12.8-8.533 29.867-12.8 51.2-12.8s46.933 8.533 68.267 21.333l209.067 115.2c12.8 8.533 38.4 8.533 51.2 0l209.067-115.2c42.667-25.6 85.333-25.6 119.467-8.533 34.133 21.333 51.2 59.733 51.2 106.667v605.867zM853.333 106.667c0-25.6-8.533-42.667-21.333-51.2s-34.133-4.267-55.467 8.533l-209.067 115.2c-29.867 17.067-81.067 17.067-110.933 0l-209.067-115.2c-21.333-12.8-42.667-17.067-55.467-8.533s-21.333 25.6-21.333 51.2v601.6c0 76.8 59.733 132.267 132.267 132.267h409.6c72.533 0 136.533-59.733 136.533-132.267v-601.6zM618.667 622.933l-149.333-149.333-42.667 42.667c-12.8 12.8-34.133 12.8-46.933 0s-12.8-34.133 0-46.933l64-64c4.267-4.267 12.8-8.533 21.333-8.533s17.067 4.267 21.333 8.533l170.667 170.667c12.8 12.8 12.8 34.133 0 46.933s-25.6 12.8-38.4 0z" />
<glyph unicode="&#xe920;" glyph-name="arrange-circle" d="M610.133 691.2c-4.267 4.267-8.533 4.267-8.533 8.533-8.533 4.267-17.067 4.267-25.6 0s-12.8-8.533-17.067-17.067c0-4.267-4.267-8.533-4.267-12.8v-439.467c0-17.067 12.8-34.133 34.133-34.133s34.133 12.8 34.133 34.133v362.667l72.533-72.533c4.267-4.267 12.8-8.533 21.333-8.533s17.067 4.267 21.333 8.533c12.8 12.8 12.8 34.133 0 46.933l-128 123.733zM435.2 704c-17.067 0-29.867-17.067-29.867-34.133v-362.667l-72.533 72.533c-12.8 12.8-34.133 12.8-46.933 0s-12.8-34.133 0-46.933l128-128c4.267-4.267 8.533-4.267 8.533-8.533 4.267 0 8.533-4.267 12.8-4.267s8.533 0 12.8 4.267 12.8 8.533 17.067 17.067c0 4.267 4.267 8.533 4.267 12.8v443.733c0 17.067-17.067 34.133-34.133 34.133zM512 908.8c-251.733 0-460.8-209.067-460.8-460.8s209.067-460.8 460.8-460.8 460.8 209.067 460.8 460.8-209.067 460.8-460.8 460.8zM512 55.467c-217.6 0-392.533 174.933-392.533 392.533s174.933 392.533 392.533 392.533 392.533-174.933 392.533-392.533-174.933-392.533-392.533-392.533z" />
<glyph unicode="&#xe921;" glyph-name="arrange-circle-2" d="M759.467 384c-4.267 8.533-8.533 12.8-17.067 17.067-4.267 0-8.533 4.267-12.8 4.267h-439.467c-17.067 0-34.133-17.067-34.133-34.133s12.8-34.133 34.133-34.133h362.667l-72.533-72.533c-12.8-12.8-12.8-34.133 0-46.933 4.267-4.267 12.8-8.533 21.333-8.533s17.067 4.267 21.333 8.533l128 128c4.267 4.267 4.267 8.533 8.533 8.533 4.267 12.8 4.267 21.333 0 29.867zM729.6 554.667h-362.667l72.533 72.533c12.8 12.8 12.8 34.133 0 46.933s-34.133 12.8-46.933 0l-128-128c0 0-4.267-4.267-4.267-8.533-4.267-8.533-4.267-17.067 0-25.6s8.533-12.8 17.067-17.067c4.267 0 8.533-4.267 12.8-4.267h439.467c17.067 0 34.133 12.8 34.133 34.133s-17.067 29.867-34.133 29.867zM512 908.8c-251.733 0-460.8-209.067-460.8-460.8s209.067-460.8 460.8-460.8 460.8 209.067 460.8 460.8-209.067 460.8-460.8 460.8zM512 55.467c-217.6 0-392.533 174.933-392.533 392.533s174.933 392.533 392.533 392.533 392.533-174.933 392.533-392.533-174.933-392.533-392.533-392.533z" />
<glyph unicode="&#xe922;" glyph-name="arrange-square" d="M640 908.8h-256c-230.4 0-332.8-102.4-332.8-332.8v-256c0-230.4 98.133-332.8 332.8-332.8h256c230.4 0 332.8 98.133 332.8 332.8v256c0 230.4-102.4 332.8-332.8 332.8zM904.533 320c0-196.267-68.267-264.533-264.533-264.533h-256c-196.267 0-264.533 68.267-264.533 264.533v256c0 196.267 68.267 264.533 264.533 264.533h256c196.267 0 264.533-68.267 264.533-264.533v-256zM759.467 384c-4.267 8.533-8.533 12.8-17.067 17.067-4.267 0-8.533 4.267-12.8 4.267h-439.467c-17.067 0-34.133-17.067-34.133-34.133s12.8-34.133 34.133-34.133h362.667l-72.533-72.533c-12.8-12.8-12.8-34.133 0-46.933 4.267-4.267 12.8-8.533 21.333-8.533s17.067 4.267 21.333 8.533l128 128c4.267 4.267 4.267 8.533 8.533 8.533 4.267 12.8 4.267 21.333 0 29.867zM729.6 554.667h-362.667l72.533 72.533c12.8 12.8 12.8 34.133 0 46.933s-34.133 12.8-46.933 0l-128-128c0 0-4.267-4.267-4.267-8.533-4.267-8.533-4.267-17.067 0-25.6s8.533-12.8 17.067-17.067c4.267 0 8.533-4.267 12.8-4.267h439.467c17.067 0 34.133 12.8 34.133 34.133s-17.067 29.867-34.133 29.867z" />
<glyph unicode="&#xe923;" glyph-name="arrange-square-2" d="M640 908.8h-256c-230.4 0-332.8-102.4-332.8-332.8v-256c0-230.4 98.133-332.8 332.8-332.8h256c230.4 0 332.8 98.133 332.8 332.8v256c0 230.4-102.4 332.8-332.8 332.8zM904.533 320c0-196.267-68.267-264.533-264.533-264.533h-256c-196.267 0-264.533 68.267-264.533 264.533v256c0 196.267 68.267 264.533 264.533 264.533h256c196.267 0 264.533-68.267 264.533-264.533v-256zM435.2 699.733c-17.067 0-34.133-12.8-34.133-34.133v-362.667l-72.533 72.533c-12.8 12.8-34.133 12.8-46.933 0s-12.8-34.133 0-46.933l128-128c4.267-4.267 8.533-4.267 8.533-8.533 4.267 0 8.533-4.267 12.8-4.267s8.533 0 12.8 4.267 12.8 8.533 17.067 17.067c0 4.267 4.267 8.533 4.267 12.8v443.733c4.267 17.067-12.8 34.133-29.867 34.133zM610.133 686.933c-4.267 4.267-8.533 4.267-8.533 8.533-8.533 4.267-17.067 4.267-25.6 0s-12.8-8.533-17.067-17.067c0-4.267-4.267-8.533-4.267-12.8v-439.467c0-17.067 12.8-34.133 34.133-34.133s34.133 12.8 34.133 34.133v362.667l72.533-72.533c4.267-4.267 12.8-8.533 21.333-8.533s17.067 4.267 21.333 8.533c12.8 12.8 12.8 34.133 0 46.933l-128 123.733z" />
<glyph unicode="&#xe924;" glyph-name="arrow" d="M512 140.8c-17.067 0-34.133-12.8-34.133-34.133v-85.333c0-17.067 12.8-34.133 34.133-34.133s34.133 12.8 34.133 34.133v85.333c0 17.067-17.067 34.133-34.133 34.133zM512 311.467c-17.067 0-34.133-12.8-34.133-34.133v-85.333c0-17.067 12.8-34.133 34.133-34.133s34.133 12.8 34.133 34.133v85.333c0 17.067-17.067 34.133-34.133 34.133zM968.533 802.133c0 4.267-4.267 8.533-8.533 8.533l-85.333 85.333c-12.8 12.8-34.133 12.8-46.933 0s-12.8-34.133 0-46.933l29.867-29.867h-46.933c-132.267 0-247.467-76.8-298.667-187.733-51.2 110.933-166.4 187.733-298.667 187.733h-51.2l29.867 29.867c12.8 12.8 12.8 34.133 0 46.933s-34.133 12.8-46.933 0l-85.333-85.333c0 0-4.267-4.267-4.267-8.533-4.267-8.533-4.267-17.067 0-25.6 0-4.267 4.267-8.533 8.533-8.533l85.333-85.333c4.267-8.533 12.8-12.8 21.333-12.8s17.067 4.267 21.333 8.533c12.8 12.8 12.8 34.133 0 46.933l-29.867 29.867h51.2c145.067 0 264.533-119.467 264.533-264.533v-128c0-17.067 12.8-34.133 34.133-34.133s34.133 12.8 34.133 34.133v128c0 145.067 119.467 264.533 264.533 264.533h51.2l-29.867-29.867c-12.8-12.8-12.8-34.133 0-46.933 4.267-4.267 12.8-8.533 21.333-8.533s17.067 4.267 21.333 8.533l85.333 85.333c4.267 4.267 4.267 8.533 8.533 8.533 4.267 12.8 4.267 21.333 0 29.867z" />
<glyph unicode="&#xe925;" glyph-name="arrow-2" d="M128 640h691.2l-102.4-102.4c-12.8-12.8-12.8-34.133 0-46.933 4.267-4.267 12.8-8.533 21.333-8.533s17.067 4.267 21.333 8.533l157.867 157.867c4.267 4.267 4.267 8.533 8.533 8.533 0 4.267 4.267 8.533 4.267 12.8s0 8.533-4.267 12.8c0 4.267-4.267 8.533-8.533 8.533l-157.867 157.867c-12.8 12.8-34.133 12.8-46.933 0s-12.8-34.133 0-46.933l106.667-98.133h-691.2c-17.067 0-34.133-12.8-34.133-29.867s17.067-34.133 34.133-34.133zM896 256h-691.2l102.4 102.4c12.8 12.8 12.8 34.133 0 46.933s-34.133 12.8-46.933 0l-157.867-157.867c-4.267-4.267-4.267-8.533-8.533-8.533-4.267-8.533-4.267-17.067 0-25.6 0-4.267 4.267-8.533 8.533-8.533l157.867-157.867c4.267-4.267 12.8-8.533 21.333-8.533s17.067 4.267 21.333 8.533c12.8 12.8 12.8 34.133 0 46.933l-98.133 98.133h691.2c17.067 0 34.133 12.8 34.133 34.133s-17.067 29.867-34.133 29.867z" />
<glyph unicode="&#xe926;" glyph-name="arrow-3" d="M307.2 853.333c-4.267 8.533-12.8 12.8-21.333 12.8s-17.067-4.267-21.333-12.8l-157.867-157.867c-12.8-12.8-12.8-34.133 0-46.933s34.133-12.8 46.933 0l102.4 106.667v-691.2c0-17.067 12.8-34.133 34.133-34.133s34.133 12.8 34.133 34.133v691.2l102.4-102.4c4.267-4.267 12.8-8.533 21.333-8.533s17.067 4.267 21.333 8.533c12.8 12.8 12.8 34.133 0 46.933l-162.133 153.6zM917.333 243.2c-12.8 12.8-34.133 12.8-46.933 0l-102.4-102.4v691.2c0 17.067-12.8 34.133-34.133 34.133s-29.867-17.067-29.867-34.133v-691.2l-102.4 102.4c-12.8 12.8-34.133 12.8-46.933 0s-12.8-34.133 0-46.933l157.867-157.867c4.267-4.267 8.533-4.267 8.533-8.533 4.267 0 8.533-4.267 12.8-4.267s8.533 0 12.8 4.267c4.267 0 8.533 4.267 8.533 8.533l157.867 157.867c17.067 17.067 17.067 34.133 4.267 46.933z" />
<glyph unicode="&#xe927;" glyph-name="arrow-bottom" d="M797.867 652.8c-29.867 51.2-93.867 85.333-170.667 85.333h-230.4c-81.067-4.267-140.8-34.133-170.667-85.333s-21.333-119.467 17.067-187.733l110.933-196.267c38.4-68.267 93.867-106.667 153.6-110.933 0 0 0 0 0 0 59.733 0 115.2 38.4 157.867 106.667l59.733 98.133 55.467 98.133c38.4 72.533 46.933 140.8 17.067 192zM725.333 499.2l-55.467-98.133-59.733-98.133c-29.867-46.933-64-76.8-102.4-76.8 0 0 0 0 0 0-34.133 0-72.533 25.6-98.133 76.8l-110.933 196.267c-29.867 46.933-34.133 89.6-17.067 123.733 17.067 29.867 59.733 46.933 115.2 46.933h230.4c55.467 0 98.133-17.067 115.2-51.2 17.067-29.867 12.8-72.533-17.067-119.467z" />
<glyph unicode="&#xe928;" glyph-name="arrow-circle-down" d="M512 908.8c-251.733 0-460.8-209.067-460.8-460.8s209.067-460.8 460.8-460.8 460.8 209.067 460.8 460.8-209.067 460.8-460.8 460.8zM512 55.467c-217.6 0-392.533 174.933-392.533 392.533s174.933 392.533 392.533 392.533 392.533-174.933 392.533-392.533-174.933-392.533-392.533-392.533zM640 524.8l-128-128-128 128c-12.8 12.8-34.133 12.8-46.933 0s-12.8-34.133 0-46.933l149.333-149.333c4.267-4.267 12.8-8.533 21.333-8.533s17.067 4.267 21.333 8.533l149.333 149.333c12.8 12.8 12.8 34.133 0 46.933s-25.6 12.8-38.4 0z" />
<glyph unicode="&#xe929;" glyph-name="arrow-circle-left" d="M512 908.8c-251.733 0-460.8-209.067-460.8-460.8s209.067-460.8 460.8-460.8 460.8 209.067 460.8 460.8-209.067 460.8-460.8 460.8zM512 55.467c-217.6 0-392.533 174.933-392.533 392.533s174.933 392.533 392.533 392.533 392.533-174.933 392.533-392.533-174.933-392.533-392.533-392.533zM460.8 448l128 128c8.533 12.8 8.533 29.867-4.267 42.667s-29.867 12.8-42.667 0l-149.333-149.333c-8.533-4.267-12.8-12.8-8.533-21.333s4.267-17.067 8.533-21.333l153.6-149.333c4.267-4.267 12.8-8.533 21.333-8.533s17.067 4.267 21.333 8.533c12.8 12.8 12.8 34.133 0 46.933l-128 123.733z" />
<glyph unicode="&#xe92a;" glyph-name="arrow-circle-right" d="M512 908.8c-251.733 0-460.8-209.067-460.8-460.8s209.067-460.8 460.8-460.8 460.8 209.067 460.8 460.8-209.067 460.8-460.8 460.8zM512 55.467c-217.6 0-392.533 174.933-392.533 392.533s174.933 392.533 392.533 392.533 392.533-174.933 392.533-392.533-174.933-392.533-392.533-392.533zM477.867 618.667c-12.8 12.8-34.133 12.8-46.933 0s-12.8-34.133 0-46.933l128-128-128-128c-12.8-12.8-12.8-34.133 0-46.933 4.267-4.267 12.8-8.533 21.333-8.533s17.067 4.267 21.333 8.533l149.333 149.333c12.8 12.8 12.8 34.133 0 46.933l-145.067 153.6z" />
<glyph unicode="&#xe92b;" glyph-name="arrow-down" d="M870.4 622.933c-12.8 12.8-34.133 12.8-46.933 0l-277.333-277.333c-21.333-21.333-51.2-21.333-72.533 0l-277.333 277.333c-12.8 12.8-34.133 12.8-46.933 0s-8.533-34.133 4.267-46.933l277.333-277.333c25.6-21.333 51.2-34.133 81.067-34.133s59.733 12.8 81.067 34.133l277.333 277.333c12.8 12.8 12.8 34.133 0 46.933z" />
<glyph unicode="&#xe92c;" glyph-name="arrow-down-1" d="M793.6 366.933c-12.8 12.8-34.133 12.8-46.933 0l-204.8-204.8v648.533c0 17.067-12.8 34.133-34.133 34.133s-34.133-12.8-34.133-34.133v-648.533l-204.8 204.8c-12.8 12.8-34.133 12.8-46.933 0s-12.8-34.133 0-46.933l260.267-260.267c4.267-4.267 12.8-8.533 21.333-8.533s17.067 4.267 21.333 8.533l260.267 260.267c21.333 17.067 21.333 34.133 8.533 46.933z" />
<glyph unicode="&#xe92d;" glyph-name="arrow-down-2" d="M512 908.8c-251.733 0-460.8-209.067-460.8-460.8s209.067-460.8 460.8-460.8 460.8 209.067 460.8 460.8-209.067 460.8-460.8 460.8zM512 55.467c-217.6 0-392.533 174.933-392.533 392.533s174.933 392.533 392.533 392.533 392.533-174.933 392.533-392.533-174.933-392.533-392.533-392.533zM618.667 448l-72.533-72.533v221.867c0 17.067-12.8 34.133-34.133 34.133s-34.133-12.8-34.133-34.133v-221.867l-72.533 72.533c-12.8 12.8-34.133 12.8-46.933 0s-12.8-34.133 0-46.933l128-128c4.267-4.267 12.8-8.533 21.333-8.533s17.067 4.267 21.333 8.533l128 128c12.8 12.8 12.8 34.133 0 46.933s-25.6 12.8-38.4 0z" />
<glyph unicode="&#xe92e;" glyph-name="arrow-left" d="M874.667 482.133h-648.533l204.8 204.8c12.8 12.8 12.8 34.133 0 46.933s-34.133 12.8-46.933 0l-256-264.533c-4.267-4.267-8.533-12.8-8.533-21.333s4.267-17.067 8.533-21.333l260.267-260.267c4.267-4.267 12.8-8.533 21.333-8.533s17.067 4.267 21.333 8.533c12.8 12.8 12.8 34.133 0 46.933l-204.8 204.8h648.533c17.067 0 34.133 12.8 34.133 34.133s-17.067 29.867-34.133 29.867z" />
<glyph unicode="&#xe92f;" glyph-name="arrow-left-1" d="M409.6 409.6c-21.333 21.333-21.333 51.2 0 72.533l277.333 277.333c12.8 12.8 12.8 34.133 0 46.933s-34.133 12.8-46.933 0l-277.333-277.333c-46.933-46.933-46.933-119.467 0-166.4l277.333-277.333c4.267-4.267 12.8-8.533 21.333-8.533s17.067 4.267 21.333 8.533c12.8 12.8 12.8 34.133 0 46.933l-273.067 277.333z" />
<glyph unicode="&#xe930;" glyph-name="arrow-left-2" d="M512 908.8c-251.733 0-460.8-209.067-460.8-460.8s209.067-460.8 460.8-460.8 460.8 209.067 460.8 460.8-209.067 460.8-460.8 460.8zM512 55.467c-217.6 0-392.533 174.933-392.533 392.533s174.933 392.533 392.533 392.533 392.533-174.933 392.533-392.533-174.933-392.533-392.533-392.533zM661.333 482.133h-221.867l72.533 72.533c12.8 12.8 12.8 34.133 0 46.933s-34.133 12.8-46.933 0l-128-128c-12.8-12.8-12.8-34.133 0-46.933l128-128c4.267-4.267 12.8-8.533 21.333-8.533s17.067 4.267 21.333 8.533c12.8 12.8 12.8 34.133 0 46.933l-72.533 72.533h221.867c17.067 0 34.133 12.8 34.133 34.133s-12.8 29.867-29.867 29.867z" />
<glyph unicode="&#xe931;" glyph-name="arrow-left-3" d="M716.8 733.867c-51.2 29.867-119.467 21.333-187.733-17.067l-196.267-110.933c-68.267-38.4-106.667-93.867-110.933-153.6 0-59.733 38.4-119.467 106.667-157.867l98.133-59.733 98.133-55.467c38.4-25.6 76.8-34.133 115.2-34.133 25.6 0 51.2 4.267 72.533 17.067 51.2 29.867 85.333 93.867 85.333 170.667v230.4c0 81.067-29.867 140.8-81.067 170.667zM733.867 332.8c0-55.467-17.067-98.133-51.2-115.2s-76.8-12.8-123.733 17.067l-98.133 55.467-98.133 59.733c-51.2 29.867-76.8 68.267-76.8 102.4s25.6 72.533 76.8 98.133l200.533 110.933c29.867 17.067 59.733 25.6 85.333 25.6 17.067 0 29.867-4.267 42.667-8.533 25.6-17.067 42.667-59.733 42.667-115.2v-230.4z" />
<glyph unicode="&#xe932;" glyph-name="arrow-right" d="M896 469.333l-256 260.267c-12.8 12.8-34.133 12.8-46.933 0s-12.8-34.133 0-46.933l204.8-204.8h-648.533c-17.067 0-34.133-12.8-34.133-34.133s12.8-34.133 34.133-34.133h648.533l-204.8-204.8c-12.8-12.8-12.8-34.133 0-46.933 4.267-4.267 12.8-8.533 21.333-8.533s17.067 4.267 21.333 8.533l260.267 260.267c4.267 4.267 8.533 12.8 8.533 21.333s0 25.6-8.533 29.867z" />
<glyph unicode="&#xe933;" glyph-name="arrow-right-1" d="M661.333 529.067l-277.333 277.333c-12.8 12.8-34.133 12.8-46.933 0s-12.8-34.133 0-46.933l277.333-277.333c21.333-21.333 21.333-51.2 0-72.533l-277.333-277.333c-12.8-12.8-12.8-34.133 0-46.933 4.267-4.267 12.8-8.533 21.333-8.533s17.067 4.267 21.333 8.533l277.333 277.333c51.2 51.2 51.2 119.467 4.267 166.4z" />
<glyph unicode="&#xe934;" glyph-name="arrow-right-2" d="M512 908.8c-251.733 0-460.8-209.067-460.8-460.8s209.067-460.8 460.8-460.8 460.8 209.067 460.8 460.8-209.067 460.8-460.8 460.8zM512 55.467c-217.6 0-392.533 174.933-392.533 392.533s174.933 392.533 392.533 392.533 392.533-174.933 392.533-392.533-174.933-392.533-392.533-392.533zM554.667 597.333c-12.8 12.8-34.133 12.8-46.933 0s-12.8-34.133 0-46.933l72.533-72.533h-217.6c-17.067 0-34.133-12.8-34.133-34.133s12.8-34.133 34.133-34.133h221.867l-72.533-68.267c-12.8-12.8-12.8-34.133 0-46.933 4.267-4.267 12.8-8.533 21.333-8.533s17.067 4.267 21.333 8.533l128 128c12.8 12.8 12.8 34.133 0 46.933l-128 128z" />
<glyph unicode="&#xe935;" glyph-name="arrow-right-3" d="M691.2 601.6l-98.133 59.733-98.133 55.467c-68.267 38.4-136.533 46.933-187.733 17.067s-85.333-93.867-85.333-170.667v-230.4c0-76.8 29.867-140.8 81.067-170.667 21.333-12.8 46.933-17.067 72.533-17.067 38.4 0 76.8 12.8 115.2 34.133l196.267 110.933c68.267 38.4 106.667 93.867 110.933 153.6s-34.133 115.2-106.667 157.867zM657.067 345.6l-196.267-110.933c-46.933-29.867-93.867-34.133-123.733-17.067s-46.933 59.733-46.933 115.2v230.4c0 55.467 17.067 98.133 51.2 115.2 12.8 8.533 25.6 8.533 42.667 8.533 25.6 0 51.2-8.533 81.067-25.6l98.133-55.467 98.133-59.733c51.2-29.867 76.8-68.267 76.8-102.4-4.267-34.133-29.867-72.533-81.067-98.133z" />
<glyph unicode="&#xe936;" glyph-name="arrow-square" d="M814.933 618.667l-72.533 72.533c-12.8 12.8-34.133 12.8-46.933 0s-12.8-29.867 0-42.667l21.333-21.333h-4.267c-85.333 0-153.6-46.933-196.267-110.933-38.4 68.267-110.933 110.933-196.267 110.933h-12.8l21.333 21.333c12.8 12.8 12.8 34.133 0 46.933s-34.133 12.8-46.933 0l-76.8-76.8c-12.8-12.8-12.8-34.133 0-46.933l76.8-76.8c4.267-4.267 12.8-8.533 21.333-8.533s17.067 4.267 21.333 8.533c12.8 12.8 12.8 34.133 0 46.933l-17.067 21.333h17.067c89.6 0 162.133-72.533 162.133-162.133 0 0 0 0 0 0v-85.333c0 0 0 0 0 0v-89.6c0-17.067 12.8-34.133 34.133-34.133s34.133 12.8 34.133 34.133v174.933c0 0 0 0 0 4.267 0 89.6 72.533 162.133 162.133 162.133h4.267l-21.333-21.333c-12.8-12.8-12.8-34.133 0-46.933 4.267-4.267 12.8-8.533 21.333-8.533s17.067 4.267 21.333 8.533l76.8 76.8c0 0 0 0 0 0 4.267 4.267 8.533 12.8 8.533 21.333s-4.267 17.067-12.8 21.333zM640 908.8h-256c-230.4 0-332.8-102.4-332.8-332.8v-256c0-230.4 98.133-332.8 332.8-332.8h256c230.4 0 332.8 98.133 332.8 332.8v256c0 230.4-102.4 332.8-332.8 332.8zM904.533 320c0-196.267-68.267-264.533-264.533-264.533h-256c-196.267 0-264.533 68.267-264.533 264.533v256c0 196.267 68.267 264.533 264.533 264.533h256c196.267 0 264.533-68.267 264.533-264.533v-256z" />
<glyph unicode="&#xe937;" glyph-name="arrow-square-down" d="M640 908.8h-256c-230.4 0-332.8-102.4-332.8-332.8v-256c0-230.4 98.133-332.8 332.8-332.8h256c230.4 0 332.8 98.133 332.8 332.8v256c0 230.4-102.4 332.8-332.8 332.8zM904.533 320c0-196.267-68.267-264.533-264.533-264.533h-256c-196.267 0-264.533 68.267-264.533 264.533v256c0 196.267 68.267 264.533 264.533 264.533h256c196.267 0 264.533-68.267 264.533-264.533v-256zM640 529.067l-128-128-128 128c-12.8 12.8-34.133 12.8-46.933 0s-12.8-34.133 0-46.933l149.333-149.333c4.267-4.267 12.8-8.533 21.333-8.533s17.067 4.267 21.333 8.533l149.333 149.333c12.8 12.8 12.8 34.133 0 46.933-4.267 12.8-25.6 12.8-38.4 0z" />
<glyph unicode="&#xe938;" glyph-name="arrow-square-left" d="M640 908.8h-256c-230.4 0-332.8-102.4-332.8-332.8v-256c0-230.4 98.133-332.8 332.8-332.8h256c230.4 0 332.8 98.133 332.8 332.8v256c0 230.4-102.4 332.8-332.8 332.8zM904.533 320c0-196.267-68.267-264.533-264.533-264.533h-256c-196.267 0-264.533 68.267-264.533 264.533v256c0 196.267 68.267 264.533 264.533 264.533h256c196.267 0 264.533-68.267 264.533-264.533v-256zM588.8 622.933c-12.8 12.8-34.133 12.8-46.933 0l-149.333-149.333c-12.8-12.8-12.8-34.133 0-46.933l149.333-149.333c4.267-4.267 12.8-8.533 21.333-8.533s17.067 4.267 21.333 8.533c12.8 12.8 12.8 34.133 0 46.933l-128 128 128 128c17.067 8.533 17.067 29.867 4.267 42.667z" />
<glyph unicode="&#xe939;" glyph-name="arrow-square-right" d="M640 908.8h-256c-230.4 0-332.8-102.4-332.8-332.8v-256c0-230.4 98.133-332.8 332.8-332.8h256c230.4 0 332.8 98.133 332.8 332.8v256c0 230.4-102.4 332.8-332.8 332.8zM904.533 320c0-196.267-68.267-264.533-264.533-264.533h-256c-196.267 0-264.533 68.267-264.533 264.533v256c0 196.267 68.267 264.533 264.533 264.533h256c196.267 0 264.533-68.267 264.533-264.533v-256zM482.133 622.933c-12.8 12.8-34.133 12.8-46.933 0s-12.8-34.133 0-46.933l128-128-128-128c-12.8-12.8-12.8-34.133 0-46.933 4.267-4.267 12.8-8.533 21.333-8.533s17.067 4.267 21.333 8.533l149.333 149.333c12.8 12.8 12.8 34.133 0 46.933l-145.067 153.6z" />
<glyph unicode="&#xe93a;" glyph-name="arrow-square-up" d="M640 908.8h-256c-230.4 0-332.8-102.4-332.8-332.8v-256c0-230.4 98.133-332.8 332.8-332.8h256c230.4 0 332.8 98.133 332.8 332.8v256c0 230.4-102.4 332.8-332.8 332.8zM904.533 320c0-196.267-68.267-264.533-264.533-264.533h-256c-196.267 0-264.533 68.267-264.533 264.533v256c0 196.267 68.267 264.533 264.533 264.533h256c196.267 0 264.533-68.267 264.533-264.533v-256zM533.333 558.933c-12.8 12.8-34.133 12.8-46.933 0l-149.333-149.333c-12.8-12.8-12.8-34.133 0-46.933s34.133-12.8 46.933 0l128 128 128-128c4.267-4.267 12.8-8.533 21.333-8.533s17.067 4.267 21.333 8.533c12.8 12.8 12.8 34.133 0 46.933l-149.333 149.333z" />
<glyph unicode="&#xe93b;" glyph-name="arrow-swap-horizontal" d="M904.533 320c0 0 0 0 0 0s0 0 0 0c0 4.267 0 8.533-4.267 12.8 0 4.267-4.267 4.267-4.267 8.533 0 0 0 0 0 4.267 0 0 0 0-4.267 0s-4.267 4.267-8.533 4.267c-4.267 0-8.533 0-8.533 0s0 0 0 0h-725.333c-17.067 0-34.133-12.8-34.133-34.133s12.8-34.133 34.133-34.133h648.533l-157.867-153.6c-12.8-12.8-12.8-34.133 0-46.933 4.267-4.267 12.8-8.533 21.333-8.533s17.067 4.267 21.333 8.533l213.333 213.333c0 0 0 0 0 4.267s4.267 4.267 4.267 8.533 4.267 8.533 4.267 12.8zM119.467 576c0 0 0 0 0 0s0 0 0 0c0-4.267 0-8.533 4.267-12.8 0-8.533 4.267-12.8 12.8-17.067 4.267 0 4.267 0 8.533 0 0 0 0 0 4.267 0h725.333c17.067 0 34.133 12.8 34.133 34.133s-12.8 34.133-34.133 34.133h-648.533l157.867 153.6c12.8 12.8 12.8 34.133 0 46.933-12.8 8.533-29.867 8.533-42.667-4.267l-213.333-213.333c0 0 0 0 0 0-4.267-4.267-8.533-4.267-8.533-8.533s0-8.533 0-12.8z" />
<glyph unicode="&#xe93c;" glyph-name="arrow-up" d="M793.6 576l-260.267 256c-12.8 12.8-34.133 12.8-46.933 0l-256-256c-12.8-12.8-12.8-34.133 0-46.933s34.133-12.8 46.933 0l204.8 204.8v-648.533c0-17.067 12.8-34.133 34.133-34.133s34.133 12.8 34.133 34.133v648.533l204.8-204.8c4.267-4.267 12.8-8.533 21.333-8.533s17.067 4.267 21.333 8.533c8.533 12.8 8.533 34.133-4.267 46.933z" />
<glyph unicode="&#xe93d;" glyph-name="arrow-up-1" d="M874.667 320l-277.333 277.333c-46.933 46.933-119.467 46.933-166.4 0l-281.6-277.333c-12.8-12.8-12.8-34.133 0-46.933s34.133-12.8 46.933 0l277.333 277.333c21.333 21.333 55.467 21.333 72.533 0l277.333-277.333c4.267-4.267 12.8-8.533 21.333-8.533s17.067 4.267 21.333 8.533c17.067 12.8 17.067 34.133 8.533 46.933z" />
<glyph unicode="&#xe93e;" glyph-name="arrow-up-2" d="M512 908.8c-251.733 0-460.8-209.067-460.8-460.8s209.067-460.8 460.8-460.8 460.8 209.067 460.8 460.8-209.067 460.8-460.8 460.8zM512 55.467c-217.6 0-392.533 174.933-392.533 392.533s174.933 392.533 392.533 392.533 392.533-174.933 392.533-392.533-174.933-392.533-392.533-392.533zM533.333 618.667c-12.8 12.8-34.133 12.8-46.933 0l-128-128c-12.8-12.8-12.8-34.133 0-46.933s34.133-12.8 46.933 0l72.533 72.533v-221.867c0-17.067 12.8-34.133 34.133-34.133s34.133 12.8 34.133 34.133v221.867l72.533-72.533c4.267-4.267 12.8-8.533 21.333-8.533s17.067 4.267 21.333 8.533c12.8 12.8 12.8 34.133 0 46.933l-128 128z" />
<glyph unicode="&#xe93f;" glyph-name="arrow-up-3" d="M780.8 430.933l-115.2 196.267c-38.4 68.267-93.867 106.667-157.867 106.667-59.733 0-115.2-38.4-157.867-106.667l-115.2-196.267c-38.4-68.267-46.933-136.533-17.067-187.733s89.6-81.067 170.667-81.067h230.4c81.067 0 140.8 29.867 170.667 81.067 38.4 51.2 34.133 119.467-8.533 187.733zM742.4 273.067c-17.067-29.867-59.733-51.2-115.2-51.2h-230.4c-55.467 0-98.133 17.067-115.2 51.2-17.067 29.867-12.8 76.8 17.067 123.733l115.2 196.267c29.867 46.933 64 76.8 102.4 76.8s72.533-25.6 102.4-76.8l115.2-196.267c21.333-46.933 25.6-89.6 8.533-123.733z" />
<glyph unicode="&#xe940;" glyph-name="attach-circle" d="M409.6 635.733l-102.4-102.4c-68.267-68.267-68.267-183.467 0-251.733 12.8-12.8 34.133-12.8 46.933 0s12.8 34.133 0 46.933c-42.667 42.667-42.667 115.2 0 162.133l102.4 102.4c55.467 55.467 140.8 55.467 196.267 0s55.467-140.8 0-196.267l-93.867-93.867c-21.333-21.333-55.467-21.333-76.8 0-8.533 4.267-12.8 17.067-12.8 34.133s4.267 25.6 17.067 38.4l59.733 59.733c12.8 12.8 12.8 34.133 0 46.933s-34.133 12.8-46.933 0l-59.733-59.733c-46.933-46.933-46.933-119.467 0-166.4 21.333-21.333 51.2-34.133 81.067-34.133s59.733 12.8 81.067 34.133l93.867 93.867c76.8 76.8 76.8 209.067 0 285.867s-204.8 76.8-285.867 0zM512 908.8c-251.733 0-460.8-209.067-460.8-460.8s209.067-460.8 460.8-460.8 460.8 209.067 460.8 460.8-209.067 460.8-460.8 460.8zM512 55.467c-217.6 0-392.533 174.933-392.533 392.533s174.933 392.533 392.533 392.533 392.533-174.933 392.533-392.533-174.933-392.533-392.533-392.533z" />
<glyph unicode="&#xe941;" glyph-name="attach-square" d="M409.6 635.733l-102.4-102.4c-68.267-68.267-68.267-183.467 0-251.733 12.8-12.8 34.133-12.8 46.933 0s12.8 34.133 0 46.933c-42.667 42.667-42.667 115.2 0 162.133l102.4 102.4c55.467 55.467 140.8 55.467 196.267 0s55.467-140.8 0-196.267l-93.867-93.867c-21.333-21.333-55.467-21.333-76.8 0-8.533 4.267-12.8 17.067-12.8 34.133s4.267 25.6 17.067 38.4l59.733 59.733c12.8 12.8 12.8 34.133 0 46.933s-34.133 12.8-46.933 0l-59.733-59.733c-46.933-46.933-46.933-119.467 0-166.4 21.333-21.333 51.2-34.133 81.067-34.133s59.733 12.8 81.067 34.133l93.867 93.867c76.8 76.8 76.8 209.067 0 285.867s-204.8 76.8-285.867 0zM640 908.8h-256c-230.4 0-332.8-102.4-332.8-332.8v-256c0-230.4 98.133-332.8 332.8-332.8h256c230.4 0 332.8 98.133 332.8 332.8v256c0 230.4-102.4 332.8-332.8 332.8zM904.533 320c0-196.267-68.267-264.533-264.533-264.533h-256c-196.267 0-264.533 68.267-264.533 264.533v256c0 196.267 68.267 264.533 264.533 264.533h256c196.267 0 264.533-68.267 264.533-264.533v-256z" />
<glyph unicode="&#xe942;" glyph-name="audio-square" d="M640 908.8h-256c-230.4 0-332.8-102.4-332.8-332.8v-256c0-230.4 98.133-332.8 332.8-332.8h256c230.4 0 332.8 98.133 332.8 332.8v256c0 230.4-102.4 332.8-332.8 332.8zM904.533 320c0-196.267-68.267-264.533-264.533-264.533h-256c-196.267 0-264.533 68.267-264.533 264.533v256c0 196.267 68.267 264.533 264.533 264.533h256c196.267 0 264.533-68.267 264.533-264.533v-256zM669.867 669.867l-98.133 34.133c-25.6 8.533-51.2 4.267-72.533-8.533-17.067-17.067-29.867-38.4-29.867-68.267v-209.067c-17.067 8.533-38.4 17.067-59.733 17.067-68.267 0-123.733-55.467-123.733-123.733 4.267-68.267 55.467-119.467 123.733-119.467s123.733 55.467 123.733 123.733v200.533c0 0 0 0 0 0l98.133-34.133c8.533-4.267 17.067-4.267 29.867-4.267 17.067 0 29.867 4.267 42.667 12.8 21.333 12.8 29.867 38.4 29.867 64v21.333c0 38.4-25.6 81.067-64 93.867zM409.6 256c-34.133 0-59.733 25.6-59.733 59.733s25.6 59.733 59.733 59.733 59.733-25.6 59.733-59.733c0-34.133-25.6-59.733-59.733-59.733zM674.133 550.4c0-4.267 0-8.533-4.267-12.8-4.267 0-8.533 0-12.8 0l-102.4 34.133c-12.8 4.267-21.333 17.067-21.333 29.867v25.6c0 4.267 0 8.533 4.267 12.8 0 0 4.267 0 4.267 0 4.267 0 4.267 0 8.533 0 0 0 0 0 0 0l98.133-34.133c12.8-4.267 21.333-17.067 21.333-29.867v-25.6z" />
<glyph unicode="&#xe943;" glyph-name="autobrightness" d="M942.933 520.533l-55.467 68.267c-4.267 8.533-12.8 25.6-12.8 34.133v72.533c0 64-51.2 115.2-115.2 115.2h-72.533c-8.533 0-25.6 4.267-34.133 12.8l-68.267 55.467c-42.667 34.133-106.667 34.133-149.333 0 0 0 0 0 0 0l-64-55.467c-8.533-8.533-25.6-12.8-34.133-12.8h-72.533c-64 0-115.2-51.2-115.2-115.2v-72.533c0-8.533-4.267-25.6-12.8-34.133l-59.733-68.267c-34.133-42.667-34.133-106.667 0-149.333l59.733-68.267c4.267-4.267 12.8-21.333 12.8-34.133v-72.533c0-64 51.2-115.2 115.2-115.2h76.8c8.533 0 25.6-4.267 34.133-12.8l68.267-55.467c21.333-17.067 46.933-25.6 72.533-25.6s55.467 8.533 76.8 25.6l68.267 55.467c8.533 4.267 25.6 12.8 34.133 12.8h72.533c64 0 115.2 51.2 115.2 115.2v72.533c0 8.533 4.267 25.6 12.8 34.133l55.467 68.267c29.867 42.667 29.867 106.667-8.533 149.333zM896 413.867l-59.733-68.267c-17.067-17.067-25.6-51.2-25.6-72.533v-72.533c0-29.867-21.333-51.2-51.2-51.2h-72.533c-25.6 0-55.467-12.8-72.533-25.6l-68.267-59.733c-17.067-17.067-46.933-17.067-64 0l-68.267 59.733c-21.333 17.067-51.2 25.6-76.8 25.6h-72.533c-29.867 0-51.2 25.6-51.2 51.2v72.533c0 25.6-12.8 55.467-25.6 72.533l-59.733 68.267c-12.8 17.067-12.8 46.933 0 64l59.733 68.267c12.8 21.333 25.6 51.2 25.6 76.8v72.533c0 25.6 21.333 51.2 51.2 51.2h72.533c25.6 0 55.467 12.8 72.533 25.6l68.267 59.733c17.067 17.067 46.933 17.067 64 0l68.267-59.733c21.333-17.067 51.2-25.6 76.8-25.6h72.533c29.867 0 51.2-25.6 51.2-51.2v-72.533c0-25.6 12.8-55.467 25.6-72.533l55.467-68.267c17.067-17.067 17.067-51.2 4.267-68.267zM482.133 627.2l-149.333-337.067 59.733-25.6 42.667 93.867c0 0 4.267 0 4.267 0h149.333c0 0 4.267 0 4.267 0l42.667-93.867 59.733 25.6-149.333 337.067h-64zM460.8 422.4l51.2 115.2 51.2-115.2h-102.4z" />
<glyph unicode="&#xe944;" glyph-name="award" d="M785.067 644.267l-4.267 4.267v98.133c0 102.4-55.467 162.133-162.133 162.133h-213.333c-102.4 0-157.867-59.733-157.867-162.133v-98.133l-8.533-4.267c-85.333-55.467-89.6-64-89.6-153.6v-213.333c0-89.6 4.267-98.133 89.6-153.6l200.533-115.2c21.333-12.8 46.933-17.067 72.533-17.067s51.2 4.267 72.533 17.067l204.8 119.467c81.067 55.467 89.6 64 89.6 153.6v213.333c-4.267 85.333-8.533 93.867-93.867 149.333zM307.2 746.667c0 68.267 29.867 93.867 93.867 93.867h213.333c68.267 0 93.867-29.867 93.867-93.867v-59.733l-132.267 76.8c-38.4 21.333-102.4 21.333-140.8 0l-128-76.8v59.733zM810.667 277.333c0-59.733 0-59.733-55.467-98.133l-204.8-115.2c-21.333-12.8-59.733-12.8-76.8 0l-200.533 115.2c-59.733 38.4-59.733 38.4-59.733 98.133v213.333c0 59.733 0 59.733 55.467 98.133l204.8 115.2c8.533 4.267 25.6 8.533 38.4 8.533s29.867-4.267 38.4-8.533l200.533-115.2c59.733-38.4 59.733-38.4 59.733-98.133v-213.333zM631.467 460.8l-42.667 12.8-25.6 38.4c0 0 0 0 0 0-8.533 17.067-29.867 29.867-51.2 29.867s-42.667-12.8-55.467-34.133l-25.6-38.4-42.667-12.8c-25.6-4.267-42.667-21.333-46.933-42.667-8.533-21.333 0-42.667 12.8-59.733l29.867-29.867v-46.933c0-25.6 8.533-46.933 25.6-59.733s38.4-12.8 64-4.267l42.667 17.067 42.667-17.067c8.533-4.267 17.067-4.267 29.867-4.267s25.6 4.267 34.133 12.8c17.067 12.8 25.6 34.133 25.6 59.733l-4.267 42.667 29.867 34.133c17.067 17.067 21.333 42.667 12.8 59.733-12.8 21.333-29.867 34.133-55.467 42.667zM588.8 362.667c-8.533-8.533-12.8-25.6-12.8-42.667l4.267-42.667-42.667 17.067c-8.533 4.267-17.067 4.267-25.6 4.267s-17.067 0-25.6-4.267l-42.667-17.067 4.267 42.667c0 12.8-4.267 34.133-12.8 42.667l-29.867 34.133 42.667 12.8c12.8 4.267 29.867 17.067 38.4 25.6l25.6 38.4c0 0 0 0 0 0s0 0 0 0l25.6-38.4c8.533-12.8 21.333-21.333 38.4-25.6l42.667-12.8-29.867-34.133z" />
<glyph unicode="&#xe945;" glyph-name="back-square" d="M640 908.8h-256c-230.4 0-332.8-102.4-332.8-332.8v-256c0-230.4 98.133-332.8 332.8-332.8h256c230.4 0 332.8 98.133 332.8 332.8v256c0 230.4-102.4 332.8-332.8 332.8zM904.533 320c0-196.267-68.267-264.533-264.533-264.533h-256c-196.267 0-264.533 68.267-264.533 264.533v256c0 196.267 68.267 264.533 264.533 264.533h256c196.267 0 264.533-68.267 264.533-264.533v-256zM593.067 597.333h-217.6l12.8 12.8c12.8 12.8 12.8 34.133 0 46.933s-34.133 12.8-46.933 0l-64-68.267c-12.8-12.8-12.8-29.867 0-42.667l64-68.267c4.267-4.267 12.8-8.533 21.333-8.533s17.067 4.267 21.333 8.533c12.8 12.8 12.8 34.133 0 46.933l-8.533 8.533h217.6c55.467 0 98.133-42.667 98.133-98.133s-42.667-98.133-98.133-98.133h-209.067c-17.067 0-34.133-12.8-34.133-34.133s12.8-34.133 34.133-34.133h209.067c89.6 0 162.133 72.533 162.133 162.133s-72.533 166.4-162.133 166.4z" />
<glyph unicode="&#xe946;" glyph-name="backward" d="M913.067 704c-34.133 21.333-81.067 21.333-115.2 0l-243.2-140.8v42.667c0 42.667-21.333 81.067-59.733 98.133-34.133 21.333-81.067 21.333-115.2 0l-268.8-157.867c-38.4-21.333-59.733-55.467-59.733-98.133s21.333-76.8 59.733-98.133l268.8-157.867c17.067-8.533 38.4-17.067 55.467-17.067 21.333 0 38.4 4.267 59.733 17.067 34.133 21.333 59.733 59.733 59.733 98.133v38.4l243.2-140.8c17.067-8.533 38.4-17.067 55.467-17.067 21.333 0 38.4 4.267 59.733 17.067 34.133 21.333 59.733 59.733 59.733 98.133v320c0 38.4-25.6 76.8-59.733 98.133zM490.667 290.133c0-17.067-8.533-34.133-25.6-42.667s-34.133-8.533-51.2 0l-273.067 157.867c-17.067 8.533-25.6 25.6-25.6 42.667s8.533 34.133 25.6 42.667l268.8 157.867c8.533 4.267 17.067 8.533 25.6 8.533s17.067-4.267 25.6-8.533 25.6-25.6 25.6-42.667v-315.733zM908.8 290.133c0-17.067-8.533-34.133-25.6-42.667s-34.133-8.533-51.2 0l-268.8 153.6c0 0-4.267 4.267-4.267 4.267v85.333c0 0 4.267 4.267 4.267 4.267l268.8 157.867c17.067 8.533 34.133 8.533 51.2 0s25.6-25.6 25.6-42.667v-320z" />
<glyph unicode="&#xe947;" glyph-name="backward-5-seconds" d="M529.067 302.933h-98.133c-17.067 0-34.133-12.8-34.133-34.133s12.8-34.133 34.133-34.133h98.133c55.467 0 98.133 42.667 98.133 98.133s-42.667 98.133-98.133 98.133h-55.467l12.8 34.133h106.667c17.067 0 34.133 12.8 34.133 34.133s-12.8 34.133-34.133 34.133h-132.267c-12.8 0-25.6-8.533-29.867-21.333l-34.133-98.133c-4.267-8.533 0-21.333 4.267-29.867s17.067-12.8 25.6-12.8h98.133c17.067 0 34.133-12.8 34.133-34.133 4.267-21.333-12.8-34.133-29.867-34.133zM512 810.667c-4.267 0-8.533 0-8.533 0l34.133 42.667c12.8 12.8 8.533 34.133-4.267 46.933s-34.133 8.533-46.933-4.267l-85.333-106.667c0 0 0 0 0 0 0-4.267-4.267-4.267-4.267-8.533 0 0 0-4.267 0-4.267s0-4.267 0-4.267 0-4.267 0-8.533c0 0 0 0 0 0s0 0 0-4.267 0-4.267 4.267-8.533c0 0 0 0 4.267-4.267 0 0 4.267-4.267 4.267-4.267s0 0 4.267 0c0 0 0 0 0 0 4.267-4.267 8.533-4.267 12.8-4.267 0 0 0 0 0 0s4.267 0 4.267 0c0 0 4.267 0 4.267 0s0 0 0 0c25.6 8.533 51.2 8.533 76.8 8.533 192 0 345.6-157.867 345.6-345.6 0-192-157.867-345.6-345.6-345.6s-345.6 157.867-345.6 345.6c0 72.533 25.6 145.067 72.533 209.067 8.533 12.8 8.533 34.133-4.267 46.933-21.333 4.267-38.4 4.267-51.2-8.533-55.467-72.533-85.333-157.867-85.333-247.467 0-226.133 183.467-409.6 409.6-409.6s409.6 183.467 409.6 409.6c4.267 226.133-179.2 409.6-405.333 409.6z" />
<glyph unicode="&#xe948;" glyph-name="backward-10-seconds" d="M366.933 413.867l8.533 8.533v-145.067c0-17.067 12.8-34.133 34.133-34.133s34.133 12.8 34.133 34.133v226.133c0 12.8-8.533 25.6-21.333 29.867s-25.6 0-34.133-8.533l-64-72.533c-12.8-12.8-12.8-34.133 4.267-46.933 4.267-4.267 25.6-4.267 38.4 8.533zM512 810.667c-4.267 0-8.533 0-8.533 0l34.133 42.667c12.8 12.8 8.533 34.133-4.267 46.933s-34.133 8.533-46.933-4.267l-85.333-106.667c0 0 0 0 0 0 0-4.267-4.267-4.267-4.267-8.533 0 0 0-4.267 0-4.267s0-4.267 0-4.267 0-4.267 0-8.533c0 0 0 0 0 0s0 0 0-4.267 0-4.267 4.267-8.533c0 0 0 0 4.267-4.267 0 0 4.267-4.267 4.267-4.267s0 0 4.267 0c0 0 0 0 0 0 4.267-4.267 8.533-4.267 12.8-4.267 0 0 0 0 0 0s4.267 0 4.267 0c0 0 4.267 0 4.267 0s0 0 0 0c25.6 8.533 51.2 8.533 76.8 8.533 192 0 345.6-157.867 345.6-345.6 0-192-157.867-345.6-345.6-345.6s-345.6 157.867-345.6 345.6c0 72.533 25.6 145.067 72.533 209.067 8.533 12.8 8.533 34.133-4.267 46.933-21.333 4.267-38.4 4.267-51.2-8.533-55.467-72.533-85.333-157.867-85.333-247.467 0-226.133 183.467-409.6 409.6-409.6s409.6 183.467 409.6 409.6c4.267 226.133-179.2 409.6-405.333 409.6zM597.333 247.467c64 0 119.467 51.2 119.467 119.467v55.467c0 64-51.2 119.467-119.467 119.467s-119.467-51.2-119.467-119.467v-55.467c0-64 55.467-119.467 119.467-119.467zM546.133 422.4c0 29.867 25.6 51.2 51.2 51.2s51.2-25.6 51.2-51.2v-55.467c0-29.867-25.6-51.2-51.2-51.2s-51.2 25.6-51.2 51.2v55.467z" />
<glyph unicode="&#xe949;" glyph-name="backward-15-seconds" d="M614.4 302.933h-98.133c-17.067 0-34.133-12.8-34.133-34.133s12.8-34.133 34.133-34.133h98.133c55.467 0 98.133 42.667 98.133 98.133s-42.667 98.133-98.133 98.133h-55.467l12.8 34.133h110.933c17.067 0 34.133 12.8 34.133 34.133s-12.8 34.133-34.133 34.133h-132.267c-12.8 0-25.6-8.533-29.867-21.333l-34.133-98.133c-4.267-8.533 0-21.333 4.267-29.867s17.067-12.8 25.6-12.8h98.133c17.067 0 34.133-12.8 34.133-34.133s-12.8-34.133-34.133-34.133zM366.933 405.333l8.533 8.533v-145.067c0-17.067 12.8-34.133 34.133-34.133s34.133 12.8 34.133 34.133v226.133c0 12.8-8.533 25.6-21.333 29.867s-25.6 0-34.133-8.533l-68.267-68.267c-12.8-12.8-12.8-34.133 4.267-46.933 8.533-8.533 29.867-8.533 42.667 4.267zM512 810.667c-4.267 0-8.533 0-8.533 0l34.133 42.667c12.8 12.8 8.533 34.133-4.267 46.933s-34.133 8.533-46.933-4.267l-85.333-106.667c0 0 0 0 0 0 0-4.267-4.267-4.267-4.267-8.533 0 0 0-4.267 0-4.267s0-4.267 0-4.267 0-4.267 0-8.533c0 0 0 0 0 0s0 0 0-4.267 0-4.267 4.267-8.533c0 0 0 0 4.267-4.267 0 0 4.267-4.267 4.267-4.267s0 0 4.267 0c0 0 0 0 0 0 4.267-4.267 8.533-4.267 12.8-4.267 0 0 0 0 0 0s4.267 0 4.267 0c0 0 4.267 0 4.267 0s0 0 0 0c25.6 8.533 51.2 8.533 76.8 8.533 192 0 345.6-157.867 345.6-345.6 0-192-157.867-345.6-345.6-345.6s-345.6 157.867-345.6 345.6c0 72.533 25.6 145.067 72.533 209.067 8.533 12.8 8.533 34.133-4.267 46.933-21.333 4.267-38.4 4.267-51.2-8.533-55.467-72.533-85.333-157.867-85.333-247.467 0-226.133 183.467-409.6 409.6-409.6s409.6 183.467 409.6 409.6c4.267 226.133-179.2 409.6-405.333 409.6z" />
<glyph unicode="&#xe94a;" glyph-name="backward-item" d="M802.133 908.8h-115.2c-115.2 0-166.4-51.2-166.4-166.4v-29.867h-81.067c-132.267 0-192-59.733-192-192v-81.067h-29.867c-115.2 0-166.4-51.2-166.4-166.4v-115.2c0-115.2 51.2-166.4 166.4-166.4h115.2c115.2 0 166.4 51.2 166.4 166.4v29.867h81.067c132.267 0 192 59.733 192 192v81.067h29.867c115.2 0 166.4 51.2 166.4 166.4v115.2c4.267 110.933-51.2 166.4-166.4 166.4zM435.2 157.867c0-76.8-25.6-102.4-102.4-102.4h-115.2c-76.8 0-102.4 25.6-102.4 102.4v115.2c0 76.8 25.6 102.4 102.4 102.4h115.2c76.8 0 102.4-25.6 102.4-102.4v-115.2zM708.267 379.733c0-98.133-29.867-128-128-128h-81.067v21.333c0 115.2-51.2 166.4-166.4 166.4h-17.067v81.067c0 98.133 29.867 128 128 128h81.067v-21.333c0-115.2 51.2-166.4 166.4-166.4h21.333v-81.067zM904.533 622.933c0-76.8-25.6-102.4-102.4-102.4h-115.2c-76.8 0-102.4 25.6-102.4 102.4v119.467c0 76.8 25.6 102.4 102.4 102.4h115.2c76.8 0 102.4-25.6 102.4-102.4v-119.467z" />
<glyph unicode="&#xe94b;" glyph-name="backward-item-1" d="M802.133 908.8h-115.2c-115.2 0-166.4-51.2-166.4-166.4v-29.867h-81.067c-132.267 0-192-59.733-192-192v-81.067h-29.867c-115.2 0-166.4-51.2-166.4-166.4v-115.2c0-115.2 51.2-166.4 166.4-166.4h115.2c115.2 0 166.4 51.2 166.4 166.4v29.867h81.067c132.267 0 192 59.733 192 192v81.067h29.867c115.2 0 166.4 51.2 166.4 166.4v115.2c4.267 110.933-51.2 166.4-166.4 166.4zM435.2 157.867c0-76.8-25.6-102.4-102.4-102.4h-115.2c-76.8 0-102.4 25.6-102.4 102.4v115.2c0 76.8 25.6 102.4 102.4 102.4h115.2c76.8 0 102.4-25.6 102.4-102.4v-115.2zM708.267 379.733c0-98.133-29.867-128-128-128h-81.067v21.333c0 115.2-51.2 166.4-166.4 166.4h-17.067v81.067c0 98.133 29.867 128 128 128h81.067v-21.333c0-115.2 51.2-166.4 166.4-166.4h21.333v-81.067zM904.533 622.933c0-76.8-25.6-102.4-102.4-102.4h-115.2c-76.8 0-102.4 25.6-102.4 102.4v119.467c0 76.8 25.6 102.4 102.4 102.4h115.2c76.8 0 102.4-25.6 102.4-102.4v-119.467z" />
<glyph unicode="&#xe94c;" glyph-name="bag" d="M972.8 622.933c0 119.467-85.333 119.467-128 119.467h-17.067l-153.6 153.6c-12.8 12.8-34.133 12.8-46.933 0s-12.8-34.133 0-46.933l110.933-110.933h-448l110.933 110.933c12.8 12.8 12.8 34.133 0 46.933-17.067 12.8-34.133 12.8-46.933 0l-153.6-153.6h-21.333c-42.667 0-128 0-128-119.467 0-42.667 8.533-72.533 29.867-93.867 12.8-12.8 25.6-17.067 38.4-21.333l55.467-354.133c12.8-81.067 46.933-170.667 200.533-170.667h256c153.6 0 183.467 76.8 200.533 162.133l68.267 358.4c12.8 4.267 25.6 8.533 38.4 21.333 21.333 25.6 34.133 55.467 34.133 98.133zM772.267 166.4c-12.8-72.533-25.6-110.933-136.533-110.933h-256c-98.133 0-123.733 42.667-136.533 115.2l-55.467 337.067h652.8l-68.267-341.333zM896 576c-4.267-4.267-25.6-4.267-42.667-4.267h-682.667c-17.067 0-38.4 0-42.667 4.267s-8.533 12.8-8.533 46.933c0 46.933 12.8 51.2 64 51.2h665.6c51.2 0 64-4.267 64-51.2-8.533-34.133-12.8-42.667-17.067-46.933zM418.133 396.8c-21.333 0-34.133-17.067-34.133-34.133v-149.333c0-17.067 12.8-34.133 34.133-34.133s34.133 12.8 34.133 34.133v149.333c-4.267 17.067-17.067 34.133-34.133 34.133zM614.4 396.8c-17.067 0-34.133-12.8-34.133-34.133v-149.333c0-17.067 12.8-34.133 34.133-34.133s34.133 12.8 34.133 34.133v149.333c-4.267 17.067-17.067 34.133-34.133 34.133z" />
<glyph unicode="&#xe94d;" glyph-name="bag-2" d="M878.933 588.8c-29.867 34.133-76.8 55.467-140.8 59.733v34.133c0 64-25.6 123.733-72.533 166.4s-106.667 64-170.667 55.467c-115.2-8.533-204.8-115.2-204.8-230.4v-25.6c-68.267-8.533-110.933-25.6-145.067-59.733-34.133-38.4-46.933-89.6-38.4-162.133l29.867-256c8.533-89.6 46.933-179.2 243.2-179.2h256c196.267 0 234.667 89.6 243.2 179.2l34.133 256c8.533 72.533-4.267 123.733-34.133 162.133zM494.933 840.533c46.933 4.267 89.6-8.533 123.733-42.667 34.133-29.867 51.2-72.533 51.2-119.467v-29.867h-320v25.6c0 81.067 68.267 162.133 145.067 166.4zM853.333 435.2l-34.133-256c-8.533-68.267-25.6-123.733-179.2-123.733h-256c-153.6 0-170.667 55.467-179.2 123.733l-29.867 256c-4.267 51.2 0 89.6 21.333 110.933 25.6 29.867 72.533 42.667 145.067 42.667h341.333c72.533 0 123.733-12.8 145.067-42.667 21.333-25.6 29.867-59.733 25.6-110.933zM661.333 490.667v0c-25.6 0-42.667-17.067-42.667-42.667s21.333-42.667 42.667-42.667 42.667 17.067 42.667 42.667-17.067 42.667-42.667 42.667zM362.667 490.667v0c-25.6 0-42.667-17.067-42.667-42.667s21.333-42.667 42.667-42.667 42.667 17.067 42.667 42.667-17.067 42.667-42.667 42.667z" />
<glyph unicode="&#xe94e;" glyph-name="bag-cross" d="M558.933 277.333l34.133 34.133c12.8 12.8 12.8 34.133 0 46.933s-34.133 12.8-46.933 0l-34.133-34.133-34.133 34.133c-12.8 12.8-34.133 12.8-46.933 0s-12.8-34.133 0-46.933l38.4-34.133-38.4-38.4c-12.8-12.8-12.8-34.133 0-46.933 4.267-4.267 12.8-8.533 21.333-8.533s17.067 4.267 21.333 8.533l38.4 42.667 34.133-34.133c4.267-4.267 12.8-8.533 21.333-8.533s17.067 4.267 21.333 8.533c12.8 12.8 12.8 34.133 0 46.933l-29.867 29.867zM972.8 622.933c0 119.467-85.333 119.467-128 119.467h-17.067l-153.6 153.6c-12.8 12.8-34.133 12.8-46.933 0s-12.8-34.133 0-46.933l110.933-110.933h-448l110.933 110.933c12.8 12.8 12.8 34.133 0 46.933-17.067 12.8-34.133 12.8-46.933 0l-153.6-153.6h-21.333c-42.667 0-128 0-128-119.467 0-42.667 8.533-72.533 29.867-93.867 12.8-12.8 25.6-17.067 38.4-21.333l55.467-354.133c12.8-81.067 46.933-170.667 200.533-170.667h256c153.6 0 183.467 76.8 200.533 162.133l68.267 358.4c12.8 4.267 25.6 8.533 38.4 21.333 21.333 25.6 34.133 55.467 34.133 98.133zM772.267 166.4c-12.8-72.533-25.6-110.933-136.533-110.933h-256c-98.133 0-123.733 42.667-136.533 115.2l-55.467 337.067h652.8l-68.267-341.333zM896 576c-4.267-4.267-25.6-4.267-42.667-4.267h-682.667c-17.067 0-38.4 0-42.667 4.267s-8.533 12.8-8.533 46.933c0 46.933 12.8 51.2 64 51.2h665.6c51.2 0 64-4.267 64-51.2-8.533-34.133-12.8-42.667-17.067-46.933z" />
<glyph unicode="&#xe94f;" glyph-name="bag-cross-1" d="M512 524.8c-110.933 0-204.8-89.6-204.8-204.8 0-110.933 89.6-204.8 204.8-204.8s204.8 89.6 204.8 204.8c0 110.933-93.867 204.8-204.8 204.8zM512 183.467c-76.8 0-136.533 64-136.533 136.533s64 140.8 136.533 140.8 136.533-64 136.533-140.8-59.733-136.533-136.533-136.533zM558.933 315.733l21.333 21.333c12.8 12.8 12.8 34.133 0 46.933s-34.133 12.8-46.933 0l-21.333-21.333-21.333 21.333c-12.8 12.8-34.133 12.8-46.933 0s-12.8-34.133 0-46.933l21.333-21.333-25.6-25.6c-12.8-12.8-12.8-34.133 0-46.933 4.267-4.267 12.8-8.533 21.333-8.533s17.067 4.267 21.333 8.533l25.6 25.6 21.333-21.333c4.267-4.267 12.8-8.533 21.333-8.533s17.067 4.267 21.333 8.533c12.8 12.8 12.8 34.133 0 46.933l-12.8 21.333zM878.933 588.8c-29.867 34.133-76.8 55.467-140.8 59.733v34.133c0 64-25.6 123.733-72.533 166.4s-106.667 64-170.667 55.467c-115.2-8.533-204.8-115.2-204.8-230.4v-25.6c-68.267-8.533-110.933-25.6-145.067-59.733-34.133-38.4-46.933-89.6-38.4-162.133l29.867-256c8.533-89.6 46.933-179.2 243.2-179.2h256c196.267 0 234.667 89.6 243.2 179.2l34.133 256c8.533 72.533-4.267 123.733-34.133 162.133zM494.933 840.533c46.933 4.267 89.6-8.533 123.733-42.667 34.133-29.867 51.2-72.533 51.2-119.467v-29.867h-320v25.6c0 81.067 68.267 162.133 145.067 166.4zM853.333 435.2l-34.133-256c-8.533-68.267-25.6-123.733-179.2-123.733h-256c-153.6 0-170.667 55.467-179.2 123.733l-29.867 256c-4.267 51.2 0 89.6 21.333 110.933 25.6 29.867 72.533 42.667 145.067 42.667h341.333c72.533 0 123.733-12.8 145.067-42.667 21.333-25.6 29.867-59.733 25.6-110.933z" />
<glyph unicode="&#xe950;" glyph-name="bag-happy" d="M661.333 384c-17.067 0-34.133-12.8-34.133-34.133 0-64-51.2-119.467-119.467-119.467s-119.467 51.2-119.467 119.467c0 17.067-12.8 34.133-34.133 34.133s-34.133-12.8-34.133-34.133c0-98.133 81.067-179.2 179.2-179.2s179.2 81.067 179.2 179.2c12.8 21.333 0 34.133-17.067 34.133zM972.8 622.933c0 119.467-85.333 119.467-128 119.467h-17.067l-153.6 153.6c-12.8 12.8-34.133 12.8-46.933 0s-12.8-34.133 0-46.933l110.933-110.933h-448l110.933 110.933c12.8 12.8 12.8 34.133 0 46.933-17.067 12.8-34.133 12.8-46.933 0l-153.6-153.6h-21.333c-42.667 0-128 0-128-119.467 0-42.667 8.533-72.533 29.867-93.867 12.8-12.8 25.6-17.067 38.4-21.333l55.467-354.133c12.8-81.067 46.933-170.667 200.533-170.667h256c153.6 0 183.467 76.8 200.533 162.133l68.267 358.4c12.8 4.267 25.6 8.533 38.4 21.333 21.333 25.6 34.133 55.467 34.133 98.133zM772.267 166.4c-12.8-72.533-25.6-110.933-136.533-110.933h-256c-98.133 0-123.733 42.667-136.533 115.2l-55.467 337.067h652.8l-68.267-341.333zM896 576c-4.267-4.267-25.6-4.267-42.667-4.267h-682.667c-17.067 0-38.4 0-42.667 4.267s-8.533 12.8-8.533 46.933c0 46.933 12.8 51.2 64 51.2h665.6c51.2 0 64-4.267 64-51.2-8.533-34.133-12.8-42.667-17.067-46.933z" />
<glyph unicode="&#xe951;" glyph-name="bag-tick" d="M593.067 366.933l-115.2-106.667-42.667 42.667c-12.8 12.8-34.133 12.8-46.933 0s-12.8-34.133 0-46.933l64-64c4.267-4.267 12.8-8.533 21.333-8.533s17.067 4.267 21.333 8.533l136.533 128c12.8 12.8 12.8 34.133 0 46.933-8.533 8.533-25.6 8.533-38.4 0zM972.8 622.933c0 119.467-85.333 119.467-128 119.467h-17.067l-153.6 153.6c-12.8 12.8-34.133 12.8-46.933 0s-12.8-34.133 0-46.933l110.933-110.933h-448l110.933 110.933c12.8 12.8 12.8 34.133 0 46.933-17.067 12.8-34.133 12.8-46.933 0l-153.6-153.6h-21.333c-42.667 0-128 0-128-119.467 0-42.667 8.533-72.533 29.867-93.867 12.8-12.8 25.6-17.067 38.4-21.333l55.467-354.133c12.8-81.067 46.933-170.667 200.533-170.667h256c153.6 0 183.467 76.8 200.533 162.133l68.267 358.4c12.8 4.267 25.6 8.533 38.4 21.333 21.333 25.6 34.133 55.467 34.133 98.133zM772.267 166.4c-12.8-72.533-25.6-110.933-136.533-110.933h-256c-98.133 0-123.733 42.667-136.533 115.2l-55.467 337.067h652.8l-68.267-341.333zM896 576c-4.267-4.267-25.6-4.267-42.667-4.267h-682.667c-17.067 0-38.4 0-42.667 4.267s-8.533 12.8-8.533 46.933c0 46.933 12.8 51.2 64 51.2h665.6c51.2 0 64-4.267 64-51.2-8.533-34.133-12.8-42.667-17.067-46.933z" />
<glyph unicode="&#xe952;" glyph-name="bag-tick-2" d="M512 524.8c-110.933 0-204.8-89.6-204.8-204.8 0-110.933 89.6-204.8 204.8-204.8s204.8 89.6 204.8 204.8c0 110.933-93.867 204.8-204.8 204.8zM512 183.467c-76.8 0-136.533 64-136.533 136.533s64 140.8 136.533 140.8 136.533-64 136.533-140.8-59.733-136.533-136.533-136.533zM558.933 384l-68.267-64-21.333 21.333c-12.8 12.8-34.133 12.8-46.933 0s-12.8-34.133 0-46.933l25.6-25.6c8.533-8.533 25.6-17.067 38.4-17.067s25.6 4.267 34.133 12.8l76.8 68.267c12.8 12.8 12.8 34.133 0 46.933-8.533 17.067-25.6 17.067-38.4 4.267zM878.933 588.8c-29.867 34.133-76.8 55.467-140.8 59.733v34.133c0 64-25.6 123.733-72.533 166.4s-106.667 64-170.667 55.467c-115.2-8.533-204.8-115.2-204.8-230.4v-25.6c-68.267-8.533-110.933-25.6-145.067-59.733-34.133-38.4-46.933-89.6-38.4-162.133l29.867-256c8.533-89.6 46.933-179.2 243.2-179.2h256c196.267 0 234.667 89.6 243.2 179.2l34.133 256c8.533 72.533-4.267 123.733-34.133 162.133zM494.933 840.533c46.933 4.267 89.6-8.533 123.733-42.667 34.133-29.867 51.2-72.533 51.2-119.467v-29.867h-320v25.6c0 81.067 68.267 162.133 145.067 166.4zM853.333 435.2l-34.133-256c-8.533-68.267-25.6-123.733-179.2-123.733h-256c-153.6 0-170.667 55.467-179.2 123.733l-29.867 256c-4.267 51.2 0 89.6 21.333 110.933 25.6 29.867 72.533 42.667 145.067 42.667h341.333c72.533 0 123.733-12.8 145.067-42.667 21.333-25.6 29.867-59.733 25.6-110.933z" />
<glyph unicode="&#xe953;" glyph-name="bag-timer" d="M512 524.8c-110.933 0-204.8-89.6-204.8-204.8 0-110.933 89.6-204.8 204.8-204.8s204.8 89.6 204.8 204.8c0 110.933-93.867 204.8-204.8 204.8zM512 183.467c-76.8 0-136.533 64-136.533 136.533s64 140.8 136.533 140.8 136.533-64 136.533-140.8-59.733-136.533-136.533-136.533zM520.533 405.333c-17.067 0-34.133-12.8-34.133-34.133v-38.4c0-4.267 0-8.533-4.267-8.533l-34.133-21.333c-17.067-8.533-21.333-29.867-12.8-42.667 4.267-8.533 17.067-17.067 25.6-17.067 4.267 0 12.8 0 17.067 4.267l29.867 21.333c21.333 12.8 38.4 38.4 38.4 64v38.4c8.533 21.333-4.267 34.133-25.6 34.133zM878.933 588.8c-29.867 34.133-76.8 55.467-140.8 59.733v34.133c0 64-25.6 123.733-72.533 166.4s-106.667 64-170.667 55.467c-115.2-8.533-204.8-115.2-204.8-230.4v-25.6c-68.267-8.533-110.933-25.6-145.067-59.733-34.133-38.4-46.933-89.6-38.4-162.133l29.867-256c8.533-89.6 46.933-179.2 243.2-179.2h256c196.267 0 234.667 89.6 243.2 179.2l34.133 256c8.533 72.533-4.267 123.733-34.133 162.133zM494.933 840.533c46.933 4.267 89.6-8.533 123.733-42.667 34.133-29.867 51.2-72.533 51.2-119.467v-29.867h-320v25.6c0 81.067 68.267 162.133 145.067 166.4zM853.333 435.2l-34.133-256c-8.533-68.267-25.6-123.733-179.2-123.733h-256c-153.6 0-170.667 55.467-179.2 123.733l-29.867 256c-4.267 51.2 0 89.6 21.333 110.933 25.6 29.867 72.533 42.667 145.067 42.667h341.333c72.533 0 123.733-12.8 145.067-42.667 21.333-25.6 29.867-59.733 25.6-110.933z" />
<glyph unicode="&#xe954;" glyph-name="bank" d="M981.333 55.467h-8.533v93.867c0 42.667-34.133 76.8-76.8 76.8h-8.533v234.667h8.533c42.667 0 76.8 34.133 76.8 76.8v140.8c0 29.867-21.333 59.733-46.933 68.267l-384 153.6c-17.067 8.533-38.4 8.533-55.467 0l-384-153.6c-29.867-12.8-51.2-42.667-51.2-68.267v-145.067c0-42.667 34.133-76.8 76.8-76.8h8.533v-234.667h-8.533c-42.667 0-76.8-34.133-76.8-76.8v-93.867h-8.533c-17.067 0-34.133-12.8-34.133-34.133s12.8-34.133 34.133-34.133h938.667c17.067 0 34.133 12.8 34.133 34.133s-17.067 38.4-34.133 38.4zM819.2 226.133h-106.667v234.667h106.667v-234.667zM546.133 226.133v234.667h106.667v-234.667h-106.667zM375.467 226.133v234.667h106.667v-234.667h-106.667zM119.467 533.333v145.067c0 4.267 4.267 8.533 8.533 8.533l384 153.6c0 0 4.267 0 4.267 0s4.267 0 4.267 0l384-153.6c4.267 0 8.533-8.533 8.533-8.533v-145.067c0-4.267-4.267-8.533-8.533-8.533h-776.533c-4.267 0-8.533 4.267-8.533 8.533zM204.8 460.8h106.667v-234.667h-106.667v234.667zM119.467 55.467v93.867c0 4.267 4.267 8.533 8.533 8.533h768c4.267 0 8.533-4.267 8.533-8.533v-93.867h-785.067zM512 567.467c51.2 0 93.867 42.667 93.867 93.867s-42.667 93.867-93.867 93.867c-51.2 0-93.867-42.667-93.867-93.867s42.667-93.867 93.867-93.867zM512 695.467c17.067 0 34.133-12.8 34.133-34.133s-17.067-29.867-34.133-29.867-34.133 12.8-34.133 29.867 17.067 34.133 34.133 34.133z" />
<glyph unicode="&#xe955;" glyph-name="barcode" d="M725.333 840.533h-426.667c-157.867 0-247.467-89.6-247.467-247.467v-298.667c0-157.867 89.6-247.467 247.467-247.467h426.667c157.867 0 247.467 89.6 247.467 247.467v298.667c0 162.133-89.6 247.467-247.467 247.467zM904.533 298.667c0-123.733-59.733-179.2-179.2-179.2h-426.667c-123.733 0-179.2 59.733-179.2 179.2v298.667c0 123.733 59.733 179.2 179.2 179.2h426.667c123.733 0 179.2-59.733 179.2-179.2v-298.667zM256 652.8c-17.067 0-34.133-17.067-34.133-34.133v-341.333c0-17.067 12.8-34.133 34.133-34.133s34.133 12.8 34.133 34.133v341.333c0 17.067-17.067 34.133-34.133 34.133zM384 652.8c-17.067 0-34.133-17.067-34.133-34.133v-170.667c0-17.067 12.8-34.133 34.133-34.133s34.133 12.8 34.133 34.133v170.667c0 17.067-17.067 34.133-34.133 34.133zM384 354.133c-17.067 0-34.133-12.8-34.133-34.133v-42.667c0-17.067 12.8-34.133 34.133-34.133s34.133 12.8 34.133 34.133v42.667c0 17.067-17.067 34.133-34.133 34.133zM640 652.8c-17.067 0-34.133-12.8-34.133-34.133v-42.667c0-17.067 12.8-34.133 34.133-34.133s34.133 12.8 34.133 34.133v42.667c0 17.067-17.067 34.133-34.133 34.133zM512 652.8c-17.067 0-34.133-12.8-34.133-34.133v-341.333c0-17.067 12.8-34.133 34.133-34.133s34.133 12.8 34.133 34.133v341.333c0 17.067-17.067 34.133-34.133 34.133zM640 482.133c-17.067 0-34.133-12.8-34.133-34.133v-170.667c0-17.067 12.8-34.133 34.133-34.133s34.133 12.8 34.133 34.133v170.667c0 17.067-17.067 34.133-34.133 34.133zM768 652.8c-17.067 0-34.133-12.8-34.133-34.133v-341.333c0-17.067 12.8-34.133 34.133-34.133s34.133 12.8 34.133 34.133v341.333c0 17.067-17.067 34.133-34.133 34.133z" />
<glyph unicode="&#xe956;" glyph-name="battery-3full" d="M874.667 584.533c-17.067 0-34.133-12.8-34.133-34.133s12.8-34.133 34.133-34.133c21.333 0 29.867-4.267 29.867-4.267 0-4.267 0-17.067 0-29.867v-85.333c0-12.8 0-25.6 0-29.867 0 0-4.267-4.267-29.867-4.267-17.067 0-34.133-12.8-34.133-34.133s12.8-34.133 34.133-34.133c89.6 0 93.867 42.667 93.867 93.867v85.333c4.267 68.267-4.267 110.933-93.867 110.933zM264.533 563.2c-17.067-4.267-25.6-21.333-21.333-38.4 12.8-51.2 12.8-102.4 0-153.6-4.267-17.067 4.267-34.133 21.333-38.4 4.267 0 4.267 0 8.533 0 12.8 0 25.6 8.533 29.867 25.6 17.067 59.733 17.067 123.733 0 187.733-4.267 12.8-21.333 21.333-38.4 17.067zM413.867 563.2c-17.067-4.267-25.6-21.333-21.333-38.4 12.8-51.2 12.8-102.4 0-153.6-4.267-17.067 4.267-34.133 21.333-38.4 4.267 0 4.267 0 8.533 0 12.8 0 25.6 8.533 29.867 25.6 17.067 59.733 17.067 123.733 0 187.733-4.267 12.8-21.333 21.333-38.4 17.067zM554.667 780.8h-256c-187.733 0-247.467-55.467-247.467-247.467v-170.667c0-187.733 55.467-247.467 247.467-247.467h256c187.733 0 247.467 55.467 247.467 247.467v170.667c0 187.733-59.733 247.467-247.467 247.467zM733.867 362.667c0-153.6-29.867-179.2-179.2-179.2h-256c-153.6 0-179.2 29.867-179.2 179.2v170.667c0 153.6 29.867 179.2 179.2 179.2h256c153.6 0 179.2-29.867 179.2-179.2v-170.667z" />
<glyph unicode="&#xe957;" glyph-name="battery-charging" d="M874.667 584.533c-17.067 0-34.133-12.8-34.133-34.133s12.8-34.133 34.133-34.133c21.333 0 29.867-4.267 29.867-4.267 0-4.267 0-17.067 0-29.867v-85.333c0-12.8 0-25.6 0-29.867 0 0-4.267-4.267-29.867-4.267-17.067 0-34.133-12.8-34.133-34.133s12.8-34.133 34.133-34.133c89.6 0 93.867 42.667 93.867 93.867v85.333c4.267 68.267-4.267 110.933-93.867 110.933zM546.133 366.933c12.8 25.6 12.8 51.2 0 76.8-12.8 21.333-38.4 38.4-64 38.4h-98.133c-4.267 0-8.533 4.267-8.533 4.267s-4.267 4.267-4.267 4.267l81.067 106.667c8.533 12.8 8.533 34.133-4.267 46.933-12.8 8.533-34.133 8.533-46.933-4.267l-81.067-110.933c-12.8-21.333-12.8-51.2 0-76.8 12.8-21.333 38.4-38.4 64-38.4h98.133c4.267 0 8.533-4.267 8.533-4.267s4.267-4.267 0-8.533l-89.6-102.4c-12.8-12.8-8.533-34.133 4.267-46.933 4.267-4.267 12.8-8.533 21.333-8.533s17.067 4.267 25.6 12.8l89.6 106.667c0 0 4.267 4.267 4.267 4.267zM298.667 183.467c-153.6 0-179.2 29.867-179.2 179.2v170.667c0 153.6 29.867 179.2 179.2 179.2 17.067 0 34.133 12.8 34.133 34.133s-17.067 34.133-34.133 34.133c-187.733 0-247.467-55.467-247.467-247.467v-170.667c0-187.733 55.467-247.467 247.467-247.467 17.067 0 34.133 12.8 34.133 34.133s-17.067 34.133-34.133 34.133zM554.667 780.8c-17.067 0-34.133-12.8-34.133-34.133s12.8-34.133 34.133-34.133c153.6 0 179.2-29.867 179.2-179.2v-170.667c0-153.6-29.867-179.2-179.2-179.2-17.067 0-34.133-12.8-34.133-34.133s12.8-34.133 34.133-34.133c187.733 0 247.467 55.467 247.467 247.467v170.667c0 187.733-59.733 247.467-247.467 247.467z" />
<glyph unicode="&#xe958;" glyph-name="battery-disable" d="M874.667 584.533c-17.067 0-34.133-12.8-34.133-34.133s12.8-34.133 34.133-34.133c21.333 0 29.867-4.267 29.867-4.267 0-4.267 0-17.067 0-29.867v-85.333c0-12.8 0-25.6 0-29.867 0 0-4.267-4.267-29.867-4.267-17.067 0-34.133-12.8-34.133-34.133s12.8-34.133 34.133-34.133c89.6 0 93.867 42.667 93.867 93.867v85.333c4.267 68.267-4.267 110.933-93.867 110.933zM665.6 768l42.667 68.267c8.533 17.067 4.267 34.133-8.533 42.667-17.067 8.533-34.133 4.267-42.667-8.533l-430.933-682.667c-81.067 8.533-106.667 42.667-106.667 174.933v170.667c0 153.6 29.867 179.2 179.2 179.2 17.067 0 34.133 12.8 34.133 34.133s-17.067 34.133-34.133 34.133c-187.733 0-247.467-55.467-247.467-247.467v-170.667c0-128 21.333-209.067 132.267-234.667l-42.667-68.267c-8.533-17.067-4.267-34.133 8.533-42.667 4.267-4.267 12.8-4.267 17.067-4.267 8.533 0 21.333 4.267 25.6 12.8l430.933 682.667c81.067-8.533 106.667-42.667 106.667-174.933v-170.667c0-153.6-29.867-179.2-179.2-179.2-17.067 0-34.133-12.8-34.133-34.133s12.8-34.133 34.133-34.133c187.733 0 247.467 55.467 247.467 247.467v170.667c4.267 128-21.333 209.067-132.267 234.667z" />
<glyph unicode="&#xe959;" glyph-name="battery-empty" d="M554.667 780.8h-256c-187.733 0-247.467-55.467-247.467-247.467v-170.667c0-187.733 55.467-247.467 247.467-247.467h256c187.733 0 247.467 55.467 247.467 247.467v170.667c0 187.733-59.733 247.467-247.467 247.467zM733.867 362.667c0-153.6-29.867-179.2-179.2-179.2h-256c-153.6 0-179.2 29.867-179.2 179.2v170.667c0 153.6 29.867 179.2 179.2 179.2h256c153.6 0 179.2-29.867 179.2-179.2v-170.667zM874.667 584.533c-17.067 0-34.133-12.8-34.133-34.133s12.8-34.133 34.133-34.133c21.333 0 29.867-4.267 29.867-4.267 0-4.267 0-17.067 0-29.867v-85.333c0-12.8 0-25.6 0-29.867 0 0-4.267-4.267-29.867-4.267-17.067 0-34.133-12.8-34.133-34.133s12.8-34.133 34.133-34.133c89.6 0 93.867 42.667 93.867 93.867v85.333c4.267 68.267-4.267 110.933-93.867 110.933z" />
<glyph unicode="&#xe95a;" glyph-name="battery-empty-1" d="M554.667 780.8h-256c-187.733 0-247.467-55.467-247.467-247.467v-170.667c0-187.733 55.467-247.467 247.467-247.467h256c187.733 0 247.467 55.467 247.467 247.467v170.667c0 187.733-59.733 247.467-247.467 247.467zM733.867 362.667c0-153.6-29.867-179.2-179.2-179.2h-256c-153.6 0-179.2 29.867-179.2 179.2v170.667c0 153.6 29.867 179.2 179.2 179.2h256c153.6 0 179.2-29.867 179.2-179.2v-170.667zM874.667 584.533c-17.067 0-34.133-12.8-34.133-34.133s12.8-34.133 34.133-34.133c21.333 0 29.867-4.267 29.867-4.267 0-4.267 0-17.067 0-29.867v-85.333c0-12.8 0-25.6 0-29.867 0 0-4.267-4.267-29.867-4.267-17.067 0-34.133-12.8-34.133-34.133s12.8-34.133 34.133-34.133c89.6 0 93.867 42.667 93.867 93.867v85.333c4.267 68.267-4.267 110.933-93.867 110.933zM264.533 563.2c-17.067-4.267-25.6-21.333-21.333-38.4 12.8-51.2 12.8-102.4 0-153.6-4.267-17.067 4.267-34.133 21.333-38.4 4.267 0 4.267 0 8.533 0 12.8 0 25.6 8.533 29.867 25.6 17.067 59.733 17.067 123.733 0 187.733-4.267 12.8-21.333 21.333-38.4 17.067z" />
<glyph unicode="&#xe95b;" glyph-name="battery-full" d="M874.667 584.533c-17.067 0-34.133-12.8-34.133-34.133s12.8-34.133 34.133-34.133c21.333 0 29.867-4.267 29.867-4.267 0-4.267 0-17.067 0-29.867v-85.333c0-12.8 0-25.6 0-29.867 0 0-4.267-4.267-29.867-4.267-17.067 0-34.133-12.8-34.133-34.133s12.8-34.133 34.133-34.133c89.6 0 93.867 42.667 93.867 93.867v85.333c4.267 68.267-4.267 110.933-93.867 110.933zM264.533 563.2c-17.067-4.267-25.6-21.333-21.333-38.4 12.8-51.2 12.8-102.4 0-153.6-4.267-17.067 4.267-34.133 21.333-38.4 4.267 0 4.267 0 8.533 0 12.8 0 25.6 8.533 29.867 25.6 17.067 59.733 17.067 123.733 0 187.733-4.267 12.8-21.333 21.333-38.4 17.067zM413.867 563.2c-17.067-4.267-25.6-21.333-21.333-38.4 12.8-51.2 12.8-102.4 0-153.6-4.267-17.067 4.267-34.133 21.333-38.4 4.267 0 4.267 0 8.533 0 12.8 0 25.6 8.533 29.867 25.6 17.067 59.733 17.067 123.733 0 187.733-4.267 12.8-21.333 21.333-38.4 17.067zM563.2 563.2c-17.067-4.267-25.6-21.333-21.333-38.4 12.8-51.2 12.8-102.4 0-153.6-4.267-17.067 4.267-34.133 21.333-38.4 4.267 0 4.267 0 8.533 0 12.8 0 25.6 8.533 29.867 25.6 17.067 59.733 17.067 123.733 0 187.733-4.267 12.8-21.333 21.333-38.4 17.067zM554.667 780.8h-256c-187.733 0-247.467-55.467-247.467-247.467v-170.667c0-187.733 55.467-247.467 247.467-247.467h256c187.733 0 247.467 55.467 247.467 247.467v170.667c0 187.733-59.733 247.467-247.467 247.467zM733.867 362.667c0-153.6-29.867-179.2-179.2-179.2h-256c-153.6 0-179.2 29.867-179.2 179.2v170.667c0 153.6 29.867 179.2 179.2 179.2h256c153.6 0 179.2-29.867 179.2-179.2v-170.667z" />
<glyph unicode="&#xe95c;" glyph-name="loading" d="M666.6 821.2c-240 93.2-501.4-64.2-535.2-309.4-1.2 0-2.4 0.2-3.6 0.2-35.4 0-64-28.6-64-64v0c2.2-116.6 52.6-231.4 136.8-311.2 220-211.2 588.4-135.2 699.2 150.4 83 209-22.6 454.6-233.2 534zM642.2 133.8c-218.4-83.6-457.2 79-450.2 314.2 0 33-25 60.2-57 63.6 15.2 76.8 54.2 148.6 111.2 202.2 105.2 102.2 272 131.6 405.2 70.6 284.8-129.2 284.4-534-9.2-650.6z" />
<glyph unicode="&#xe95d;" glyph-name="cross-circle-filled" d="M512 896c-247.023 0-448-200.977-448-448 0-247.040 200.977-448 448-448 247.040 0 448 200.96 448 448 0 247.023-200.96 448-448 448zM685.248 365.248c24.998-24.998 24.998-65.502 0-90.5-12.497-12.497-28.873-18.748-45.248-18.748s-32.751 6.251-45.248 18.752l-82.752 82.748-82.752-82.752c-12.497-12.497-28.873-18.748-45.248-18.748s-32.751 6.251-45.248 18.752c-24.998 24.998-24.998 65.502 0 90.5l82.748 82.748-82.752 82.752c-24.998 24.977-24.998 65.519 0 90.5 24.998 24.998 65.502 24.998 90.5 0l82.752-82.752 82.752 82.752c24.998 24.998 65.502 24.998 90.5 0 24.998-24.977 24.998-65.519 0-90.5l-82.752-82.752 82.748-82.752z" />
<glyph unicode="&#xe95e;" glyph-name="bill" d="M938.667 883.2h-853.333c-17.067 0-34.133-12.8-34.133-34.133s17.067-29.867 34.133-29.867h38.4v-477.867c0-51.2 25.6-102.4 68.267-132.267l221.867-166.4c29.867-21.333 64-34.133 98.133-34.133s68.267 12.8 98.133 34.133l221.867 166.4c42.667 29.867 68.267 81.067 68.267 132.267v477.867h38.4c17.067 0 34.133 12.8 34.133 34.133s-17.067 29.867-34.133 29.867zM836.267 341.333c0-29.867-17.067-64-38.4-81.067l-221.867-166.4c-34.133-25.6-85.333-25.6-123.733 0l-221.867 166.4c-25.6 17.067-38.4 51.2-38.4 81.067v477.867h648.533v-477.867zM341.333 584.533h341.333c17.067 0 34.133 12.8 34.133 34.133s-17.067 29.867-34.133 29.867h-341.333c-17.067 0-34.133-12.8-34.133-29.867s17.067-34.133 34.133-34.133zM341.333 371.2h341.333c17.067 0 34.133 12.8 34.133 34.133s-12.8 34.133-34.133 34.133h-341.333c-17.067 0-34.133-12.8-34.133-34.133s17.067-34.133 34.133-34.133z" />
<glyph unicode="&#xe95f;" glyph-name="bitcoin-card" d="M256 256c-17.067 0-34.133-12.8-34.133-34.133s17.067-29.867 34.133-29.867h85.333c17.067 0 34.133 12.8 34.133 34.133s-17.067 29.867-34.133 29.867h-85.333zM418.133 226.133c0-17.067 12.8-34.133 34.133-34.133h170.667c17.067 0 34.133 12.8 34.133 34.133s-12.8 34.133-34.133 34.133h-170.667c-21.333-4.267-34.133-17.067-34.133-34.133zM938.667 477.867c-17.067 0-34.133-12.8-34.133-34.133v-204.8c0-132.267-25.6-153.6-157.867-153.6h-473.6c-132.267 0-157.867 21.333-157.867 153.6v294.4h439.467c17.067 0 34.133 12.8 34.133 34.133s-17.067 29.867-34.133 29.867h-435.2c0 128 25.6 149.333 157.867 149.333h290.133c17.067 0 29.867 12.8 29.867 34.133s-12.8 34.133-34.133 34.133h-290.133c-170.667 0-221.867-51.2-221.867-217.6v-349.867c0-166.4 51.2-217.6 221.867-217.6h473.6c170.667 0 221.867 51.2 221.867 217.6v204.8c4.267 8.533-12.8 25.6-29.867 25.6zM691.2 610.133h-8.533c-17.067 0-34.133-12.8-34.133-34.133s12.8-34.133 34.133-34.133h85.333v-21.333c0-17.067 12.8-34.133 34.133-34.133s34.133 12.8 34.133 34.133v21.333h46.933c51.2 0 93.867 38.4 93.867 85.333 0 25.6-12.8 51.2-38.4 68.267 4.267 12.8 8.533 25.6 8.533 38.4 0 46.933-38.4 85.333-85.333 85.333h-25.6v21.333c0 17.067-12.8 34.133-34.133 34.133s-34.133-12.8-34.133-34.133v-21.333h-85.333c-17.067 0-34.133-12.8-34.133-34.133s12.8-34.133 34.133-34.133h8.533v-140.8zM878.933 610.133h-119.467v42.667h119.467c17.067 0 29.867-8.533 29.867-21.333s-17.067-21.333-29.867-21.333zM776.533 755.2h81.067c12.8 0 21.333-12.8 21.333-21.333 0-12.8-8.533-21.333-21.333-21.333h-102.4v42.667h21.333z" />
<glyph unicode="&#xe960;" glyph-name="bitcoin-convert" d="M981.333 311.467c-17.067 0-34.133-12.8-34.133-34.133 0-128-89.6-230.4-204.8-260.267l12.8 21.333c8.533 17.067 4.267 34.133-12.8 42.667s-34.133 4.267-42.667-12.8l-42.667-76.8c-4.267-8.533-4.267-21.333 0-34.133 4.267-8.533 17.067-17.067 29.867-17.067 183.467 0 332.8 149.333 332.8 332.8-4.267 21.333-21.333 38.4-38.4 38.4zM281.6 878.933l-12.8-21.333c-8.533-17.067-4.267-34.133 12.8-42.667s34.133-4.267 42.667 12.8l42.667 76.8c4.267 8.533 4.267 21.333 0 34.133-4.267 4.267-12.8 12.8-25.6 12.8-183.467 0-332.8-149.333-332.8-332.8 0-17.067 12.8-34.133 34.133-34.133s34.133 17.067 34.133 34.133c0 128 85.333 230.4 204.8 260.267zM473.6 320c4.267 8.533 8.533 21.333 8.533 34.133 0 42.667-38.4 81.067-81.067 81.067h-8.533v12.8c0 17.067-12.8 34.133-34.133 34.133s-29.867-17.067-29.867-34.133v-17.067h-42.667c-17.067 0-34.133-12.8-34.133-34.133v-196.267c0-17.067 12.8-34.133 34.133-34.133h42.667v-17.067c0-17.067 12.8-34.133 34.133-34.133s34.133 12.8 34.133 34.133v17.067h29.867c46.933 0 85.333 34.133 85.333 81.067-4.267 34.133-17.067 55.467-38.4 72.533zM315.733 371.2h89.6c8.533 0 17.067-8.533 17.067-17.067s-8.533-17.067-17.067-17.067h-89.6v34.133zM418.133 238.933h-55.467c0 0 0 0 0 0s0 0 0 0h-42.667v34.133h106.667c12.8 0 21.333-8.533 21.333-17.067-4.267-8.533-17.067-17.067-29.867-17.067zM947.2 588.8c0 162.133-132.267 294.4-294.4 294.4-157.867 0-290.133-128-294.4-285.867-157.867-4.267-285.867-136.533-285.867-294.4 0-162.133 132.267-294.4 294.4-294.4 157.867 0 290.133 128 294.4 285.867 162.133 4.267 285.867 136.533 285.867 294.4zM652.8 819.2c128 0 230.4-102.4 230.4-230.4 0-123.733-98.133-226.133-226.133-230.4 0 4.267 0 4.267 0 8.533 0 8.533-4.267 17.067-8.533 29.867 0 4.267-4.267 8.533-4.267 17.067-4.267 8.533-8.533 17.067-12.8 25.6-4.267 4.267-4.267 12.8-8.533 17.067s-4.267 8.533-8.533 17.067c-4.267 8.533-12.8 17.067-21.333 25.6 0 0-4.267 4.267-4.267 4.267-42.667 51.2-102.4 85.333-170.667 98.133 8.533 119.467 110.933 217.6 234.667 217.6zM371.2 72.533c-128 0-230.4 102.4-230.4 230.4s102.4 230.4 230.4 230.4c4.267 0 12.8 0 17.067 0 81.067-4.267 149.333-55.467 187.733-123.733 12.8-25.6 25.6-55.467 25.6-89.6v-17.067c0-123.733-102.4-230.4-230.4-230.4z" />
</font>
</defs>
</svg>
