<svg version="1.2" xmlns="http://www.w3.org/2000/svg" viewBox="0 0 102 102" width="102" height="102">
	<style>
		.s0 { fill: #000000 } 
	</style>
	<g id="G copy">
		<g id="&lt;Group&gt;">
			<g id="&lt;Group&gt;">
			</g>
		</g>
		<g id="&lt;Group&gt;">
			<g id="&lt;Group&gt;">
			</g>
		</g>
		<g id="&lt;Group&gt;">
			<g id="&lt;Group&gt;">
			</g>
		</g>
		<g id="&lt;Group&gt;">
			<g id="&lt;Group&gt;">
			</g>
		</g>
		<g id="&lt;Group&gt;">
			<g id="&lt;Group&gt;">
			</g>
		</g>
		<g id="&lt;Group&gt;">
			<g id="&lt;Group&gt;">
				<g id="Folder 1">
					<path id="&lt;Path&gt;" class="s0" d="m-28.16 33.26c-7.95-11.41-21.25-16.33-34.88-14.35-14.31 2.08-25.39 10.86-29.49 24.85-3.88 13.21-2.37 28.26 6.19 39.32 7.8 10.08 20.84 15.47 33.4 12.04 15.84-4.32 22.05-20.45 22.45-35.44 0.08-2.89-2.57-5.58-5.48-5.48q-13.92 0.48-27.84 0.95c-7.03 0.24-7.08 11.1 0 10.97q15.39-0.28 30.78-0.56-2.74-2.74-5.48-5.48c1.14 17.99-15.99 32.86-33.67 26.23-18.53-6.95-20.1-31.43-13.48-47.47 3.7-8.96 12.49-13.51 21.58-15.25 8.16-1.56 21.21-2.84 27.33 4.09 1.47 1.66 1.6 3.21 2.31 5.13q-0.02 0.31-0.04 0.62-0.48 2.21 3.15 0.73c0.04-0.12-0.87-2.08-0.78-1.89-1.67-3.83-4.13-6.77-7.67-9.04-6.9-4.43-15.99-4.97-23.82-3.31-19.95 4.23-31.53 24.02-27.81 43.54 1.32 6.92 11.89 3.99 10.58-2.91-2.08-10.91 3.04-22.21 12.87-27.48 4.5-2.41 9.84-3.5 14.92-2.94 6.13 0.67 9.23 3.19 11.76 8.52 1.89 3.98 5.64 6.71 10.22 5.69 5.21-1.16 7.64-6.64 7.59-11.53-0.12-11.31-10.53-18.75-20.74-20.47-22.75-3.83-48.58 5.48-53.87 29.87-2.5 11.5-3.11 24.52 1.83 35.46 4.15 9.19 12.28 16.28 21.83 19.45 24.07 8 48.44-12.32 46.87-37.04-0.18-2.92-2.36-5.54-5.48-5.48q-15.39 0.27-30.78 0.55 0 5.48 0 10.97 13.92-0.48 27.84-0.95-2.74-2.75-5.48-5.49c-0.32 11.77-5.23 25.18-18.98 25.52-11.48 0.28-20-9.41-22.4-19.91-2.67-11.71 0.63-26.94 12.06-32.72 10.8-5.47 25.84-4.26 33.14 6.23 4 5.75 13.51 0.27 9.47-5.54z"/>
					<path id="&lt;Path&gt;" class="s0" d="m-105.48 7.51c-2.57 12.08 1.83 23.2 11.82 30.38 5.74 4.12 11.22-5.39 5.53-9.47-5.79-4.16-8.25-11.07-6.78-17.99 1.47-6.88-9.1-9.83-10.57-2.92z"/>
					<path id="&lt;Path&gt;" class="s0" d="m-24.8 6.67c0.84 7.88-2.39 14.37-8.03 19.78-5.11 4.89 2.65 12.63 7.75 7.75 7.53-7.21 12.37-16.96 11.25-27.53-0.74-6.95-11.71-7.02-10.97 0z"/>
					<path id="&lt;Path&gt;" class="s0" d="m-105.85 10.02c4.3 11.86 15.03 19.6 27.82 18.97 7.02-0.34 7.07-11.3 0-10.96-7.69 0.37-14.56-3.52-17.24-10.93-2.38-6.58-12.98-3.74-10.58 2.92z"/>
					<path id="&lt;Path&gt;" class="s0" d="m-24.6 5.21c-3.22 9.48-12.81 13.95-22.24 11.19-6.79-1.99-9.69 8.59-2.92 10.57 15.41 4.51 30.63-3.79 35.73-18.84 2.27-6.7-8.31-9.58-10.57-2.92z"/>
					<path id="&lt;Path&gt;" class="s0" d="m-63.31 67.17q5.21 0.2 10.42 0.41c1.41 0.05 3.33 0.51 4.73 0.18q3.14 0.86 1.09-0.97-1.1-2.27-1.13 0.36c-1.46 2.44-1.99 4.78-4.14 6.89-1.95 1.93-4.3 3.33-6.96 4.01-12.99 3.32-19.18-9.12-22.77-19.17-2.36-6.6-12.96-3.75-10.58 2.92 3.19 8.91 6.87 18.18 15.2 23.5 7.84 5.01 18.22 5.48 26.47 1.22 7.49-3.88 14.37-12.72 13.98-21.49-0.21-4.75-3.72-7.56-8.2-8.08-5.95-0.69-12.13-0.51-18.11-0.75-7.06-0.28-7.05 10.69 0 10.97z"/>
				</g>
			</g>
		</g>
	</g>
	<g id="G">
		<g id="&lt;Group&gt;">
			<g id="&lt;Group&gt;">
			</g>
		</g>
		<g id="&lt;Group&gt;">
			<g id="&lt;Group&gt;">
			</g>
		</g>
		<g id="&lt;Group&gt;">
			<g id="&lt;Group&gt;">
			</g>
		</g>
		<g id="&lt;Group&gt;">
			<g id="&lt;Group&gt;">
			</g>
		</g>
		<g id="&lt;Group&gt;">
			<g id="&lt;Group&gt;">
			</g>
		</g>
		<g id="&lt;Group&gt;">
			<g id="&lt;Group&gt;">
				<g id="Folder 1">
					<path id="&lt;Path&gt;" class="s0" d="m81.84 33.26c-7.95-11.41-21.25-16.33-34.88-14.35-14.31 2.08-25.39 10.86-29.49 24.85-3.88 13.21-2.37 28.26 6.19 39.32 7.8 10.08 20.84 15.47 33.4 12.04 15.84-4.32 22.05-20.45 22.45-35.44 0.08-2.89-2.57-5.58-5.48-5.48q-13.92 0.48-27.84 0.95c-7.03 0.24-7.08 11.1 0 10.97q15.39-0.28 30.78-0.56-2.74-2.74-5.48-5.48c1.14 17.99-15.99 32.86-33.67 26.23-18.53-6.95-20.1-31.43-13.48-47.47 3.7-8.96 12.49-13.51 21.58-15.25 8.16-1.56 21.21-2.84 27.33 4.09 1.47 1.66 1.6 3.21 2.31 5.13q-0.02 0.31-0.04 0.62-0.48 2.21 3.15 0.73c0.04-0.12-0.87-2.08-0.78-1.89-1.67-3.83-4.13-6.77-7.67-9.04-6.9-4.43-15.99-4.97-23.82-3.31-19.95 4.23-31.53 24.02-27.81 43.54 1.32 6.92 11.89 3.99 10.58-2.91-2.08-10.91 3.04-22.21 12.87-27.48 4.5-2.41 9.84-3.5 14.92-2.94 6.13 0.67 9.23 3.19 11.76 8.52 1.89 3.98 5.64 6.71 10.22 5.69 5.21-1.16 7.64-6.64 7.59-11.53-0.12-11.31-10.53-18.75-20.74-20.47-22.75-3.83-48.58 5.48-53.87 29.87-2.5 11.5-3.11 24.52 1.83 35.46 4.15 9.19 12.28 16.28 21.83 19.45 24.07 8 48.44-12.32 46.87-37.04-0.18-2.92-2.36-5.54-5.48-5.48q-15.39 0.27-30.78 0.55 0 5.48 0 10.97 13.92-0.48 27.84-0.95-2.74-2.75-5.48-5.49c-0.32 11.77-5.23 25.18-18.98 25.52-11.48 0.28-20-9.41-22.4-19.91-2.67-11.71 0.63-26.94 12.06-32.72 10.8-5.47 25.84-4.26 33.14 6.23 4 5.75 13.51 0.27 9.47-5.54z"/>
					<path id="&lt;Path&gt;" class="s0" d="m4.52 7.51c-2.57 12.08 1.83 23.2 11.82 30.38 5.74 4.12 11.22-5.39 5.53-9.47-5.79-4.16-8.25-11.07-6.78-17.99 1.47-6.88-9.1-9.83-10.57-2.92z"/>
					<path id="&lt;Path&gt;" class="s0" d="m85.2 6.67c0.84 7.88-2.39 14.37-8.03 19.78-5.11 4.89 2.65 12.63 7.75 7.75 7.53-7.21 12.37-16.96 11.25-27.53-0.74-6.95-11.71-7.02-10.97 0z"/>
					<path id="&lt;Path&gt;" class="s0" d="m4.15 10.02c4.3 11.86 15.03 19.6 27.82 18.97 7.02-0.34 7.07-11.3 0-10.96-7.69 0.37-14.56-3.52-17.24-10.93-2.38-6.58-12.98-3.74-10.58 2.92z"/>
					<path id="&lt;Path&gt;" class="s0" d="m85.4 5.21c-3.22 9.48-12.81 13.95-22.24 11.19-6.79-1.99-9.69 8.59-2.92 10.57 15.41 4.51 30.63-3.79 35.73-18.84 2.27-6.7-8.31-9.58-10.57-2.92z"/>
					<path id="&lt;Path&gt;" class="s0" d="m46.69 67.17q5.21 0.2 10.42 0.41c1.41 0.05 3.33 0.51 4.73 0.18q3.14 0.86 1.09-0.97-1.1-2.27-1.13 0.36c-1.46 2.44-1.99 4.78-4.14 6.89-1.95 1.93-4.3 3.33-6.96 4.01-12.99 3.32-19.18-9.12-22.77-19.17-2.36-6.6-12.96-3.75-10.58 2.92 3.19 8.91 6.87 18.18 15.2 23.5 7.84 5.01 18.22 5.48 26.47 1.22 7.49-3.88 14.37-12.72 13.98-21.49-0.21-4.75-3.72-7.56-8.2-8.08-5.95-0.69-12.13-0.51-18.11-0.75-7.06-0.28-7.05 10.69 0 10.97z"/>
				</g>
			</g>
		</g>
	</g>
</svg>