<?xml version="1.0" encoding="UTF-8"?>
<svg id="Layer_2" data-name="Layer 2" xmlns="http://www.w3.org/2000/svg" viewBox="0 0 525 125">
  <defs>
    <style>
      .cls-1, .cls-2 {
        fill: #fff;
      }

      .cls-2 {
        font-family: CascadiaCodeRoman-Bold, 'Cascadia Code';
        font-size: 28.51px;
        font-variation-settings: 'wght' 700;
        font-weight: 700;
      }
    </style>
  </defs>
  <g id="Layer_1-2" data-name="Layer 1">
    <g>
      <g>
        <path class="cls-1" d="M36.97,61.9v-10.34h14.91c1.11,0,3.08-1.02,3.93-1.73,5.38-4.53,3.09-13.91-4.29-14.34h-17.38s0,31.76,0,31.76c0,.07-.12.32-.17.39l-7.3,7.36h-3.51V30.35l5.24-5.24.18-.1h24.01c11.19.68,18.91,11.48,16.43,22.38-1.79,7.85-8.56,13.9-16.64,14.52h-15.41Z"/>
        <polygon class="cls-1" points="48.94 49.08 36.97 49.05 36.97 46.74 48.94 46.78 48.94 49.08"/>
      </g>
      <g>
        <path class="cls-1" d="M75,74.32V25.68h9.04v48.63h-9.04ZM83.56,56.51v-8.32h8.73c2.1,0,3.73-.62,4.9-1.87,1.16-1.24,1.75-2.98,1.75-5.22s-.58-4.01-1.75-5.24-2.8-1.85-4.9-1.85h-8.6l-.82-8.32h9.42c5.23,0,9.27,1.28,12.12,3.84,2.85,2.56,4.28,6.19,4.28,10.89,0,5.09-1.43,9.05-4.28,11.87-2.85,2.82-6.9,4.23-12.12,4.23h-8.73ZM99.69,74.32l-9.18-22.88h9.52l10.45,22.88h-10.79Z"/>
        <path class="cls-1" d="M132.43,75c-12.35,0-18.53-8.22-18.53-24.66s6.18-25.34,18.53-25.34,18.53,8.45,18.53,25.34-6.18,24.66-18.53,24.66ZM132.43,66.37c6.03,0,9.04-5.34,9.04-16.03s-3.01-16.75-9.04-16.75-9.04,5.58-9.04,16.75,3.01,16.03,9.04,16.03Z"/>
        <path class="cls-1" d="M156.78,74.32V25.68h8.42v48.63h-8.42ZM170.38,57.29l-4.11-22.98h-2.16l.55-8.63h5.03l3.56,21.75h.27l.96,9.86h-4.11ZM172.36,57.29l1.03-9.86h.41l3.56-21.75h5.03l.55,8.63h-2.16l-4.11,22.98h-4.32ZM181.85,74.32V25.68h8.42v48.63h-8.42Z"/>
        <path class="cls-1" d="M198.97,74.32V25.68h9.04v48.63h-9.04ZM207.19,60.38v-8.32h6.68c2.99,0,5.3-.82,6.93-2.47s2.45-3.94,2.45-6.88c0-2.79-.82-4.93-2.45-6.44s-3.94-2.26-6.93-2.26h-6.54v-8.32h6.54c6.1,0,10.81,1.43,14.14,4.3,3.33,2.87,5,6.91,5,12.14,0,5.8-1.67,10.29-5,13.48-3.33,3.18-8.05,4.78-14.14,4.78h-6.68Z"/>
        <path class="cls-1" d="M237.33,34.01v-8.32h36.78v8.32h-36.78ZM251.2,74.32V25.68h9.04v48.63h-9.04Z"/>
        <path class="cls-1" d="M300.89,74.32V25.68h9.04v48.63h-9.04ZM309.45,74.32v-8.66h3.8c4.45,0,7.79-1.27,10.02-3.82,2.23-2.55,3.34-6.26,3.34-11.15,0-5.39-1.11-9.46-3.34-12.23-2.23-2.76-5.57-4.14-10.02-4.14h-3.66l-.82-8.63h4.49c15.23,0,22.84,8.33,22.84,25,0,15.75-7.61,23.63-22.84,23.63h-3.8Z"/>
        <path class="cls-1" d="M341.99,74.32V25.68h9.04v48.63h-9.04ZM350.55,56.51v-8.32h8.73c2.1,0,3.73-.62,4.9-1.87,1.16-1.24,1.75-2.98,1.75-5.22s-.58-4.01-1.75-5.24-2.8-1.85-4.9-1.85h-8.6l-.82-8.32h9.42c5.23,0,9.27,1.28,12.12,3.84,2.85,2.56,4.28,6.19,4.28,10.89,0,5.09-1.43,9.05-4.28,11.87-2.85,2.82-6.9,4.23-12.12,4.23h-8.73ZM366.68,74.32l-9.18-22.88h9.52l10.45,22.88h-10.79Z"/>
        <path class="cls-1" d="M379.83,74.32l14.04-48.63h11.1l14.04,48.63h-9.76l-9.52-36.75h-.62l-9.52,36.75h-9.76ZM386.92,65.1v-8.36h24.66v8.36h-24.66Z"/>
        <path class="cls-1" d="M425.55,74.32V25.68h9.04v48.63h-9.04ZM425.55,34.01v-8.32h33.36v8.32h-33.36ZM425.55,56.2v-8.39h26.61v8.39h-26.61Z"/>
        <path class="cls-1" d="M463.22,34.01v-8.32h36.78v8.32h-36.78ZM477.09,74.32V25.68h9.04v48.63h-9.04Z"/>
      </g>
      <text class="cls-2" transform="translate(23.58 100)"><tspan x="0" y="0">@Prompt_draft</tspan></text>
    </g>
  </g>
</svg>